<svg width="171" height="171" viewBox="0 0 171 171" fill="none" xmlns="http://www.w3.org/2000/svg">
<g id="Gitcoin Logo">
<g id="Rectangle 63" filter="url(#filter0_bd_325_591)">
<rect x="4" width="163" height="163" rx="81.5" fill="url(#paint0_linear_325_591)" fill-opacity="0.2" shape-rendering="crispEdges"/>
<rect x="4.5" y="0.5" width="162" height="162" rx="81" stroke="white" stroke-opacity="0.2" shape-rendering="crispEdges"/>
</g>
<path id="Vector" d="M110.687 113.791C110.339 113.896 110.166 113.994 109.998 113.994C100.497 113.994 90.9627 114.487 81.5071 113.855C66.6809 112.865 54.9054 102.279 51.1127 88.6521C46.6716 72.6984 53.961 55.973 68.671 48.4103C69.8365 47.8117 70.3087 47.1379 70.2338 45.8354C70.1289 44.0322 70.1888 42.2178 70.215 40.4071C70.2338 38.9352 70.4999 37.5988 72.3813 37.5574C73.8654 37.5273 74.5175 38.3893 74.5325 40.3694C74.5437 42.1613 74.5325 43.9532 74.5325 45.8655C76.7437 45.4251 78.73 45.0298 80.9262 44.5931C80.9262 43.1551 80.8999 41.6682 80.9336 40.185C80.9711 38.7319 81.4696 37.5574 83.1636 37.5725C84.8351 37.5875 85.3635 38.6717 85.3373 40.1925C85.3148 41.6079 85.3335 43.0271 85.3335 44.5931C91.4011 44.7249 96.9591 46.193 101.891 49.3401C105.159 51.4256 108.075 54.072 111.414 56.6807C105.095 62.5834 99.1253 68.166 93.1776 73.7223C95.2463 79.5195 95.2164 80.3251 92.6791 85.5012C95.5911 87.6357 98.5631 89.7513 101.471 91.961C104.335 94.1368 107.138 96.3917 109.938 98.6466C110.279 98.9214 110.653 99.4221 110.657 99.8211C110.706 104.485 110.691 109.146 110.691 113.795L110.687 113.791ZM102.206 56.8049C101.355 56.1838 100.737 55.6681 100.055 55.2465C92.6304 50.6765 84.7301 49.4492 76.2902 51.7757C74.9822 52.1371 74.51 52.713 74.5587 54.0946C74.6636 57.2115 74.5812 60.336 74.5924 63.4567C74.5999 64.9775 74.0528 66.0617 72.385 66.0655C70.721 66.0655 70.1513 64.9399 70.1251 63.4567C70.0951 61.7702 70.1176 60.0875 70.1176 58.4011C70.1176 57.1964 70.1176 55.9918 70.1176 54.4785C69.2406 55.0357 68.7047 55.3331 68.2175 55.6944C58.6232 62.8469 54.5344 72.3784 56.3071 84.2627C58.1023 96.2863 68.626 106.597 80.6938 107.583C88.4704 108.216 96.3257 107.862 104.144 107.933C104.301 107.933 104.458 107.772 104.698 107.636C104.698 106.721 104.597 105.773 104.721 104.858C104.972 102.979 104.226 101.801 102.697 100.698C98.1096 97.3893 93.6123 93.9449 89.1562 90.459C87.927 89.4953 86.7577 89.2242 85.2323 89.3861C81.7282 89.755 78.7487 88.5504 76.5488 85.7346C73.603 81.9627 73.3557 77.7239 75.773 73.9105C78.2652 69.9767 82.4215 68.3505 87.065 69.3857C87.6721 69.5212 88.5941 69.4233 89.0176 69.0394C93.3912 65.0641 97.6936 61.0098 102.198 56.8087L102.206 56.8049ZM84.3816 83.3103C86.6415 83.3254 88.4179 81.5712 88.4292 79.3087C88.4442 77.0651 86.664 75.2507 84.4378 75.2356C82.2116 75.2206 80.3977 77.02 80.3865 79.256C80.3752 81.5147 82.1329 83.299 84.3816 83.3141V83.3103Z" fill="white" fill-opacity="0.75"/>
</g>
<defs>
<filter id="filter0_bd_325_591" x="-6" y="-10" width="183" height="183" filterUnits="userSpaceOnUse" color-interpolation-filters="sRGB">
<feFlood flood-opacity="0" result="BackgroundImageFix"/>
<feGaussianBlur in="BackgroundImageFix" stdDeviation="5"/>
<feComposite in2="SourceAlpha" operator="in" result="effect1_backgroundBlur_325_591"/>
<feColorMatrix in="SourceAlpha" type="matrix" values="0 0 0 0 0 0 0 0 0 0 0 0 0 0 0 0 0 0 127 0" result="hardAlpha"/>
<feOffset dy="4"/>
<feGaussianBlur stdDeviation="2"/>
<feComposite in2="hardAlpha" operator="out"/>
<feColorMatrix type="matrix" values="0 0 0 0 0 0 0 0 0 0 0 0 0 0 0 0 0 0 0.1 0"/>
<feBlend mode="normal" in2="effect1_backgroundBlur_325_591" result="effect2_dropShadow_325_591"/>
<feBlend mode="normal" in="SourceGraphic" in2="effect2_dropShadow_325_591" result="shape"/>
</filter>
<linearGradient id="paint0_linear_325_591" x1="85.5" y1="0" x2="85.5" y2="163" gradientUnits="userSpaceOnUse">
<stop stop-color="white"/>
<stop offset="1" stop-color="white" stop-opacity="0"/>
</linearGradient>
</defs>
</svg>
