<svg width="62" height="77" viewBox="0 0 62 77" fill="none" xmlns="http://www.w3.org/2000/svg">
<g clip-path="url(#clip0_621_556)">
<path d="M60.8663 76.2343C60.5178 76.3397 60.3454 76.4376 60.1767 76.4376C50.6762 76.4376 41.1419 76.9307 31.6863 76.2983C16.8601 75.3082 5.08464 64.7227 1.29191 51.0954C-3.14919 35.1417 4.1402 18.4164 18.8502 10.8536C20.0157 10.2551 20.4879 9.58124 20.413 8.27875C20.308 6.47559 20.368 4.66113 20.3942 2.85044C20.413 1.37854 20.6791 0.0421701 22.5605 0.000761333C24.0446 -0.0293541 24.6967 0.832701 24.7117 2.81279C24.7229 4.60466 24.7117 6.39653 24.7117 8.30887C26.9228 7.86843 28.9092 7.47316 31.1054 7.03649C31.1054 5.59847 31.0791 4.11152 31.1128 2.62834C31.1503 1.17526 31.6488 0.000761334 33.3428 0.0158191C35.0143 0.0308768 35.5427 1.11503 35.5165 2.63586C35.494 4.05129 35.5127 5.47048 35.5127 7.03649C41.5803 7.16824 47.1383 8.63637 52.0703 11.7834C55.3384 13.8689 58.2541 16.5153 61.5934 19.1241C55.2747 25.0267 49.3045 30.6094 43.3568 36.1657C45.4255 41.9629 45.3956 42.7685 42.8583 47.9446C45.7703 50.079 48.7423 52.1946 51.6506 54.4044C54.5139 56.5802 57.3172 58.8351 60.1168 61.09C60.4578 61.3648 60.8326 61.8655 60.8363 62.2645C60.8851 66.9286 60.8701 71.589 60.8701 76.2381L60.8663 76.2343ZM52.3851 19.2483C51.5344 18.6272 50.916 18.1115 50.2339 17.6898C42.8096 13.1198 34.9093 11.8926 26.4694 14.219C25.1614 14.5804 24.6892 15.1564 24.7379 16.5379C24.8428 19.6549 24.7604 22.7793 24.7716 25.9001C24.7791 27.4209 24.232 28.5051 22.5642 28.5088C20.9002 28.5088 20.3305 27.3832 20.3043 25.9001C20.2743 24.2136 20.2968 22.5309 20.2968 20.8444C20.2968 19.6398 20.2968 18.4352 20.2968 16.9219C19.4198 17.479 18.8839 17.7764 18.3967 18.1378C8.80242 25.2902 4.71361 34.8218 6.4863 46.7061C8.28148 58.7297 18.8052 69.0405 30.873 70.0268C38.6496 70.6592 46.5049 70.3053 54.3227 70.3768C54.4801 70.3768 54.6375 70.215 54.8774 70.0795C54.8774 69.1647 54.7762 68.2161 54.8999 67.3013C55.151 65.4228 54.4052 64.2446 52.8761 63.1416C48.2888 59.8327 43.7915 56.3882 39.3354 52.9023C38.1062 51.9386 36.9369 51.6676 35.4115 51.8295C31.9074 52.1984 28.9279 50.9938 26.728 48.178C23.7822 44.406 23.5349 40.1673 25.9522 36.3539C28.4444 32.4201 32.6007 30.7938 37.2442 31.829C37.8513 31.9646 38.7733 31.8667 39.1968 31.4827C43.5704 27.5075 47.8728 23.4532 52.3776 19.2521L52.3851 19.2483ZM34.5608 45.7537C36.8207 45.7687 38.5971 44.0145 38.6084 41.7521C38.6234 39.5085 36.8432 37.694 34.617 37.679C32.3908 37.6639 30.5769 39.4633 30.5657 41.6994C30.5544 43.958 32.3121 45.7424 34.5608 45.7574V45.7537Z" fill="white" fill-opacity="0.75"/>
</g>
<defs>
<clipPath id="clip0_621_556">
<rect width="62" height="77" fill="white"/>
</clipPath>
</defs>
</svg>
