<svg width="67" height="67" viewBox="0 0 67 67" fill="none" xmlns="http://www.w3.org/2000/svg">
<g clip-path="url(#clip0_621_561)">
<path d="M67.0008 35.6513C66.6718 37.5576 66.4413 39.4879 65.9994 41.3678C63.7925 50.7938 58.2836 57.7925 50.0131 62.6664C43.8462 66.3014 37.1462 67.5018 30.0571 66.8128C22.7208 66.0997 16.4026 63.1538 10.9345 58.2583C10.1589 57.5644 10.1997 57.1539 10.8961 56.4624C18.2661 49.1444 25.6049 41.7904 32.9845 34.482C33.4071 34.0642 34.1252 33.9298 34.7231 33.7089C34.9345 33.6321 35.1962 33.6897 35.4364 33.6873C44.8836 33.6417 54.3308 33.5889 63.7781 33.5577C64.8491 33.5553 65.9226 33.6705 66.9936 33.7329V35.6465L67.0008 35.6513Z" fill="white" fill-opacity="0.6"/>
<path d="M34.4443 0C36.1253 0.23529 37.8111 0.432165 39.4849 0.713072C43.9252 1.45736 48.0196 3.09718 51.9099 5.68777C50.4163 7.19075 48.9706 8.69132 47.4529 10.1103C47.268 10.2831 46.622 10.1415 46.293 9.95901C42.1986 7.70454 37.7847 6.62413 33.1499 6.71296C20.4656 6.95786 9.81282 15.6636 7.21206 28.1099C5.88407 34.4676 6.7702 40.5803 9.88966 46.3137C10.2571 46.9908 10.2499 47.3917 9.65913 47.9295C8.2831 49.1876 6.98153 50.5273 5.57909 51.9006C3.94131 49.5789 2.77662 47.0436 1.85206 44.393C0.586509 40.7604 -0.167542 36.9981 0.0317775 33.1711C0.764215 19.0633 7.41378 8.82577 20.3575 2.8739C23.926 1.23167 27.7203 0.44417 31.6394 0.240092C31.9396 0.225686 32.2326 0.0816312 32.528 0C33.1668 0 33.8055 0 34.4443 0Z" fill="white" fill-opacity="0.6"/>
<path d="M51.4083 20.225C51.4299 16.8854 54.0763 14.314 57.4599 14.35C60.6539 14.3836 63.4011 17.1639 63.3747 20.3331C63.3459 23.5599 60.5458 26.3041 57.2918 26.2945C53.9971 26.2849 51.3867 23.5911 51.4083 20.2226V20.225Z" fill="white" fill-opacity="0.6"/>
</g>
<defs>
<clipPath id="clip0_621_561">
<rect width="67" height="67" fill="white"/>
</clipPath>
</defs>
</svg>
