<svg width="275" height="44" viewBox="0 0 275 44" fill="none" xmlns="http://www.w3.org/2000/svg">
<path d="M49.152 30V8.18182H57.3338C59.0099 8.18182 60.4162 8.47301 61.5526 9.0554C62.696 9.63778 63.5589 10.4545 64.1413 11.5057C64.7308 12.5497 65.0256 13.7678 65.0256 15.1598C65.0256 16.5589 64.7273 17.7734 64.1307 18.8033C63.5412 19.826 62.6712 20.6179 61.5206 21.179C60.37 21.733 58.9567 22.0099 57.2805 22.0099H51.4531V18.7287H56.7479C57.728 18.7287 58.5305 18.5937 59.1555 18.3239C59.7805 18.0469 60.2422 17.6456 60.5405 17.12C60.8459 16.5874 60.9986 15.9339 60.9986 15.1598C60.9986 14.3857 60.8459 13.7251 60.5405 13.1783C60.2351 12.6243 59.7699 12.2053 59.1449 11.9212C58.5199 11.63 57.7138 11.4844 56.7266 11.4844H53.1044V30H49.152ZM60.4233 20.1136L65.8246 30H61.4141L56.1087 20.1136H60.4233ZM75.5032 30.3196C73.8626 30.3196 72.4457 29.9787 71.2525 29.2969C70.0664 28.608 69.1538 27.6349 68.5146 26.3778C67.8754 25.1136 67.5558 23.6257 67.5558 21.9141C67.5558 20.2308 67.8754 18.7536 68.5146 17.4822C69.1609 16.2038 70.0629 15.2095 71.2205 14.4993C72.3782 13.782 73.7383 13.4233 75.3008 13.4233C76.3093 13.4233 77.261 13.5866 78.1559 13.9134C79.0579 14.233 79.8533 14.7301 80.5423 15.4048C81.2383 16.0795 81.7852 16.9389 82.1829 17.983C82.5806 19.0199 82.7795 20.2557 82.7795 21.6903V22.8729H69.3668V20.2734H79.0827C79.0756 19.5348 78.9158 18.8778 78.6033 18.3026C78.2908 17.7202 77.854 17.2621 77.293 16.9283C76.739 16.5945 76.0927 16.4276 75.354 16.4276C74.5657 16.4276 73.8732 16.6193 73.2766 17.0028C72.68 17.3793 72.2148 17.8764 71.881 18.4943C71.5543 19.1051 71.3874 19.7763 71.3803 20.5078V22.777C71.3803 23.7287 71.5543 24.5455 71.9023 25.2273C72.2504 25.902 72.7369 26.4205 73.3619 26.7827C73.9869 27.1378 74.7184 27.3153 75.5565 27.3153C76.1175 27.3153 76.6254 27.2372 77.0799 27.081C77.5344 26.9176 77.9286 26.6797 78.2624 26.3672C78.5962 26.0547 78.8484 25.6676 79.0188 25.206L82.6197 25.6108C82.3924 26.5625 81.9592 27.3935 81.32 28.1037C80.6879 28.8068 79.8782 29.3537 78.891 29.7443C77.9038 30.1278 76.7745 30.3196 75.5032 30.3196ZM93.1586 36.4773C91.7736 36.4773 90.584 36.2891 89.5897 35.9126C88.5953 35.5433 87.7963 35.0462 87.1926 34.4212C86.589 33.7962 86.1699 33.1037 85.9355 32.3438L89.4086 31.5021C89.5648 31.8217 89.7921 32.1378 90.0904 32.4503C90.3887 32.7699 90.79 33.0327 91.2942 33.2386C91.8056 33.4517 92.4483 33.5582 93.2225 33.5582C94.3162 33.5582 95.2218 33.2919 95.9391 32.7592C96.6564 32.2337 97.0151 31.3672 97.0151 30.1598V27.0597H96.8233C96.6245 27.4574 96.3333 27.8658 95.9498 28.2848C95.5733 28.7038 95.0726 29.0554 94.4476 29.3395C93.8297 29.6236 93.052 29.7656 92.1145 29.7656C90.8574 29.7656 89.7175 29.4709 88.6948 28.8814C87.6792 28.2848 86.8695 27.397 86.2658 26.218C85.6692 25.032 85.3709 23.5476 85.3709 21.7649C85.3709 19.968 85.6692 18.4517 86.2658 17.2159C86.8695 15.973 87.6827 15.032 88.7054 14.3928C89.7282 13.7464 90.8681 13.4233 92.1252 13.4233C93.084 13.4233 93.8723 13.5866 94.4902 13.9134C95.1152 14.233 95.6124 14.62 95.9817 15.0746C96.351 15.522 96.6316 15.9446 96.8233 16.3423H97.0364V13.6364H100.84V30.2663C100.84 31.6655 100.506 32.8232 99.8382 33.7393C99.1706 34.6555 98.258 35.3409 97.1003 35.7955C95.9426 36.25 94.6287 36.4773 93.1586 36.4773ZM93.1905 26.7401C94.0073 26.7401 94.7033 26.5412 95.2786 26.1435C95.8539 25.7457 96.2907 25.174 96.589 24.4283C96.8873 23.6825 97.0364 22.7876 97.0364 21.7436C97.0364 20.7138 96.8873 19.8118 96.589 19.0376C96.2978 18.2635 95.8645 17.6634 95.2892 17.2372C94.7211 16.804 94.0215 16.5874 93.1905 16.5874C92.3311 16.5874 91.6138 16.8111 91.0385 17.2585C90.4632 17.706 90.03 18.3203 89.7388 19.1016C89.4476 19.8757 89.302 20.7564 89.302 21.7436C89.302 22.745 89.4476 23.6222 89.7388 24.375C90.0371 25.1207 90.4739 25.7031 91.0492 26.1222C91.6316 26.5341 92.3453 26.7401 93.1905 26.7401ZM112.036 30.3196C110.396 30.3196 108.979 29.9787 107.786 29.2969C106.6 28.608 105.687 27.6349 105.048 26.3778C104.409 25.1136 104.089 23.6257 104.089 21.9141C104.089 20.2308 104.409 18.7536 105.048 17.4822C105.694 16.2038 106.596 15.2095 107.754 14.4993C108.911 13.782 110.271 13.4233 111.834 13.4233C112.843 13.4233 113.794 13.5866 114.689 13.9134C115.591 14.233 116.387 14.7301 117.075 15.4048C117.771 16.0795 118.318 16.9389 118.716 17.983C119.114 19.0199 119.313 20.2557 119.313 21.6903V22.8729H105.9V20.2734H115.616C115.609 19.5348 115.449 18.8778 115.137 18.3026C114.824 17.7202 114.387 17.2621 113.826 16.9283C113.272 16.5945 112.626 16.4276 111.887 16.4276C111.099 16.4276 110.406 16.6193 109.81 17.0028C109.213 17.3793 108.748 17.8764 108.414 18.4943C108.088 19.1051 107.921 19.7763 107.914 20.5078V22.777C107.914 23.7287 108.088 24.5455 108.436 25.2273C108.784 25.902 109.27 26.4205 109.895 26.7827C110.52 27.1378 111.252 27.3153 112.09 27.3153C112.651 27.3153 113.159 27.2372 113.613 27.081C114.068 26.9176 114.462 26.6797 114.796 26.3672C115.129 26.0547 115.382 25.6676 115.552 25.206L119.153 25.6108C118.926 26.5625 118.492 27.3935 117.853 28.1037C117.221 28.8068 116.411 29.3537 115.424 29.7443C114.437 30.1278 113.308 30.3196 112.036 30.3196ZM126.432 20.4119V30H122.575V13.6364H126.261V16.4169H126.453C126.83 15.5007 127.43 14.7727 128.254 14.233C129.085 13.6932 130.111 13.4233 131.332 13.4233C132.462 13.4233 133.445 13.6648 134.283 14.1477C135.129 14.6307 135.782 15.3303 136.244 16.2464C136.712 17.1626 136.943 18.2741 136.936 19.581V30H133.08V20.1776C133.08 19.0838 132.795 18.228 132.227 17.6101C131.666 16.9922 130.888 16.6832 129.894 16.6832C129.219 16.6832 128.619 16.8324 128.094 17.1307C127.575 17.4219 127.167 17.8445 126.869 18.3984C126.577 18.9524 126.432 19.6236 126.432 20.4119ZM153.619 13.6364C153.499 12.4219 152.962 11.456 152.011 10.7386C151.059 10.0213 149.862 9.66264 148.42 9.66264C147.405 9.66264 146.51 9.83665 145.736 10.1847C144.969 10.5327 144.365 11.0156 143.925 11.6335C143.491 12.2443 143.275 12.9403 143.275 13.7216C143.275 14.2969 143.399 14.8011 143.648 15.2344C143.896 15.6676 144.23 16.0405 144.649 16.353C145.075 16.6584 145.544 16.9212 146.055 17.1413C146.574 17.3615 147.096 17.5462 147.621 17.6953L149.923 18.3558C150.619 18.5476 151.315 18.7926 152.011 19.0909C152.707 19.3892 153.342 19.7656 153.918 20.2202C154.5 20.6676 154.965 21.218 155.313 21.8714C155.668 22.5178 155.846 23.2955 155.846 24.2045C155.846 25.3693 155.544 26.4169 154.94 27.3473C154.337 28.2777 153.47 29.0163 152.341 29.5632C151.212 30.103 149.859 30.3729 148.282 30.3729C146.798 30.3729 145.509 30.1278 144.415 29.6378C143.321 29.1406 142.462 28.4553 141.837 27.5817C141.212 26.7081 140.86 25.696 140.782 24.5455H142.827C142.898 25.4048 143.183 26.1328 143.68 26.7294C144.177 27.326 144.823 27.7805 145.619 28.093C146.414 28.3984 147.302 28.5511 148.282 28.5511C149.369 28.5511 150.335 28.37 151.18 28.0078C152.032 27.6385 152.7 27.1271 153.183 26.4737C153.673 25.8132 153.918 25.0462 153.918 24.1726C153.918 23.4339 153.726 22.8161 153.342 22.3189C152.959 21.8146 152.423 21.392 151.734 21.0511C151.052 20.7102 150.26 20.4084 149.358 20.1456L146.748 19.3786C145.036 18.8672 143.708 18.1605 142.763 17.2585C141.819 16.3565 141.347 15.206 141.347 13.8068C141.347 12.6349 141.659 11.6051 142.284 10.7173C142.916 9.82244 143.768 9.12642 144.841 8.62926C145.92 8.125 147.131 7.87287 148.474 7.87287C149.83 7.87287 151.031 8.12145 152.075 8.61861C153.119 9.11577 153.946 9.80114 154.557 10.6747C155.175 11.5412 155.505 12.5284 155.548 13.6364H153.619ZM166.638 30.3409C165.175 30.3409 163.9 29.9751 162.813 29.2436C161.734 28.5121 160.896 27.5107 160.299 26.2393C159.702 24.968 159.404 23.5192 159.404 21.8928C159.404 20.2521 159.706 18.7926 160.31 17.5142C160.92 16.2358 161.766 15.2344 162.845 14.5099C163.925 13.7784 165.178 13.4126 166.606 13.4126C167.7 13.4126 168.69 13.6257 169.578 14.0518C170.466 14.4709 171.197 15.0639 171.773 15.831C172.355 16.5909 172.721 17.4787 172.87 18.4943H170.952C170.754 17.571 170.274 16.7827 169.514 16.1293C168.761 15.4687 167.803 15.1385 166.638 15.1385C165.594 15.1385 164.67 15.4226 163.868 15.9908C163.065 16.5518 162.437 17.3366 161.982 18.3452C161.535 19.3466 161.311 20.5078 161.311 21.8288C161.311 23.157 161.531 24.3324 161.972 25.3551C162.412 26.3707 163.03 27.1662 163.825 27.7415C164.628 28.3168 165.565 28.6044 166.638 28.6044C167.362 28.6044 168.023 28.4695 168.619 28.1996C169.223 27.9226 169.727 27.532 170.132 27.0277C170.544 26.5234 170.821 25.9233 170.963 25.2273H172.881C172.739 26.2145 172.387 27.0952 171.826 27.8693C171.272 28.6364 170.551 29.2401 169.663 29.6804C168.783 30.1207 167.774 30.3409 166.638 30.3409ZM183.305 30.3409C181.892 30.3409 180.642 29.9822 179.555 29.2649C178.475 28.5476 177.63 27.5568 177.02 26.2926C176.409 25.0213 176.103 23.5547 176.103 21.8928C176.103 20.2166 176.409 18.7429 177.02 17.4716C177.63 16.1932 178.475 15.1989 179.555 14.4886C180.642 13.7713 181.892 13.4126 183.305 13.4126C184.718 13.4126 185.965 13.7713 187.044 14.4886C188.124 15.206 188.969 16.2003 189.58 17.4716C190.198 18.7429 190.507 20.2166 190.507 21.8928C190.507 23.5547 190.201 25.0213 189.591 26.2926C188.98 27.5568 188.131 28.5476 187.044 29.2649C185.965 29.9822 184.718 30.3409 183.305 30.3409ZM183.305 28.6044C184.441 28.6044 185.404 28.299 186.192 27.6882C186.98 27.0774 187.577 26.2642 187.982 25.2486C188.394 24.233 188.6 23.1143 188.6 21.8928C188.6 20.6712 188.394 19.549 187.982 18.5263C187.577 17.5036 186.98 16.6832 186.192 16.0653C185.404 15.4474 184.441 15.1385 183.305 15.1385C182.176 15.1385 181.213 15.4474 180.418 16.0653C179.63 16.6832 179.029 17.5036 178.618 18.5263C178.213 19.549 178.01 20.6712 178.01 21.8928C178.01 23.1143 178.213 24.233 178.618 25.2486C179.029 26.2642 179.63 27.0774 180.418 27.6882C181.206 28.299 182.169 28.6044 183.305 28.6044ZM194.67 30V13.6364H196.513V16.1506H196.651C196.978 15.3267 197.546 14.6626 198.356 14.1584C199.172 13.647 200.096 13.3913 201.126 13.3913C201.282 13.3913 201.456 13.3949 201.648 13.402C201.839 13.4091 201.999 13.4162 202.127 13.4233V15.3516C202.042 15.3374 201.893 15.3161 201.68 15.2876C201.466 15.2592 201.236 15.245 200.987 15.245C200.135 15.245 199.375 15.4261 198.707 15.7884C198.047 16.1435 197.525 16.6371 197.141 17.2692C196.758 17.9013 196.566 18.6222 196.566 19.4318V30H194.67ZM211.481 30.3409C209.954 30.3409 208.633 29.9858 207.518 29.2756C206.403 28.5582 205.54 27.5675 204.929 26.3033C204.325 25.032 204.023 23.5689 204.023 21.9141C204.023 20.2663 204.325 18.8033 204.929 17.5249C205.54 16.2393 206.381 15.2344 207.454 14.5099C208.533 13.7784 209.78 13.4126 211.193 13.4126C212.081 13.4126 212.937 13.576 213.76 13.9027C214.584 14.2223 215.323 14.7159 215.976 15.3835C216.637 16.044 217.159 16.8786 217.542 17.8871C217.926 18.8885 218.118 20.0746 218.118 21.4453V22.3828H205.334V20.7102H216.179C216.179 19.6591 215.966 18.7145 215.54 17.8764C215.121 17.0312 214.535 16.3636 213.782 15.8736C213.036 15.3835 212.173 15.1385 211.193 15.1385C210.156 15.1385 209.243 15.4155 208.455 15.9695C207.667 16.5234 207.049 17.255 206.601 18.1641C206.161 19.0732 205.937 20.0675 205.93 21.147V22.1484C205.93 23.4482 206.154 24.5845 206.601 25.5575C207.056 26.5234 207.699 27.2727 208.53 27.8054C209.361 28.3381 210.344 28.6044 211.481 28.6044C212.255 28.6044 212.933 28.4837 213.515 28.2422C214.105 28.0007 214.599 27.6776 214.996 27.2727C215.401 26.8608 215.706 26.4098 215.912 25.9197L217.713 26.5057C217.464 27.1946 217.056 27.8303 216.488 28.4126C215.927 28.995 215.224 29.4638 214.378 29.8189C213.54 30.1669 212.574 30.3409 211.481 30.3409Z" fill="white"/>
<path d="M0.0182336 21.8902C0.543662 32.6694 10.4538 37.7881 15.3432 39C11.4024 34.2948 8.11873 29.1618 8.11873 21.6763C8.11873 15.6879 12.2784 9.27168 12.2784 9.27168L8.99445 9.0578C10.2204 5.80694 14.1756 2.99807 16 2C10.4538 4.13873 -0.507194 11.111 0.0182336 21.8902Z" fill="#FFC555"/>
<path d="M16.4686 9.42556C13.5269 16.0687 15.6755 24.5765 17.1175 28C19.4968 26.8346 24.9476 22.974 27.7163 16.8554C30.485 10.7367 30.1677 3.45261 29.663 0.684649C28.7978 -0.189442 24.4717 -0.407707 22.525 1.12185C20.3856 2.8028 20.0015 7.75022 20.362 9.86261L16.4686 9.42556Z" fill="#80E43A"/>
<path d="M27.7805 35.2122C24.5157 37.9487 19.3348 38.6062 17.1525 38.5929C17.4104 37.2162 18.6756 33.8254 21.6726 31.2764C24.6697 28.7274 28.8481 27.4318 30.5009 27.1244C31.1421 27.367 31.9966 29.4055 31.4594 30.6465C30.869 32.0103 29.0377 34.9657 27.7805 35.2122Z" fill="#80E43A"/>
</svg>
