<svg width="115" height="60" viewBox="0 0 115 60" fill="none" xmlns="http://www.w3.org/2000/svg">
<g clip-path="url(#clip0_621_558)">
<path d="M24.2131 60C16.8173 59.7145 10.3672 58.754 5.20179 54.0382C0.277233 49.5387 -0.713031 43.7933 0.428895 37.7709C1.69572 31.0823 3.17665 24.385 5.30884 17.9213C8.84168 7.21778 18.0217 0.823348 29.5748 0.122469C35.5699 -0.240949 41.4223 0.0878584 46.9089 2.71832C54.0102 6.11888 58.0605 12.7815 56.758 20.3787C55.4733 27.8634 53.8942 35.3741 51.4855 42.5732C48.1757 52.4547 40.5837 57.9925 29.9495 59.4635C27.8262 59.7577 25.6762 59.8702 24.2131 60ZM16.4337 38.7314C16.398 43.8452 17.6827 46.1036 20.5197 47.1592C25.6583 49.0801 32.9381 46.5622 35.2755 41.7079C38.7013 34.5953 39.9056 26.8943 40.6193 19.1673C40.9494 15.6024 38.6923 13.1882 35.3201 12.4268C30.235 11.276 24.8286 13.145 22.2415 17.5839C18.2269 24.4802 17.7362 32.3456 16.4426 38.7314H16.4337Z" fill="white"/>
<path d="M85.7698 38.5538C83.5907 38.5538 81.4203 38.6063 79.2413 38.5363C78.0122 38.4926 77.4806 38.886 77.2278 40.1711C76.1993 45.4339 74.9964 50.6618 73.9504 55.9246C73.5059 58.1888 72.2943 59.0892 70.0107 58.9931C67.0384 58.8707 64.0661 58.9669 61.0939 58.9581C58.1652 58.9581 57.616 58.3112 58.2175 55.435C59.6905 48.4063 61.2072 41.3863 62.6889 34.3663C64.8332 24.2166 66.9687 14.0757 69.0954 3.92599C69.784 0.630182 70.4378 -0.0254834 73.7151 0.000743154C81.8997 0.0619385 90.1018 -0.0167412 98.269 0.367915C103.795 0.630181 108.964 2.25623 112.52 7.04695C114.569 9.80949 115.257 12.9654 114.917 16.2962C114.08 24.6013 110.89 31.5601 103.115 35.564C98.1644 38.108 92.7428 38.5538 87.2777 38.5626C86.7722 38.5626 86.2666 38.5626 85.7523 38.5626L85.7698 38.5538ZM79.8775 26.5595C83.643 26.5595 87.0424 26.6819 90.4243 26.5333C94.765 26.341 98.0598 23.3774 98.9314 19.1549C99.8728 14.6002 98.1993 12.2223 93.6493 11.9776C90.5376 11.8114 87.4172 11.8901 84.3054 11.9863C83.7737 12.0038 82.9195 12.6157 82.8062 13.0966C81.7777 17.4589 80.8799 21.8562 79.8775 26.5683V26.5595Z" fill="white"/>
</g>
<defs>
<clipPath id="clip0_621_558">
<rect width="115" height="60" fill="white"/>
</clipPath>
</defs>
</svg>
