<svg width="101" height="101" viewBox="0 0 101 101" fill="none" xmlns="http://www.w3.org/2000/svg">
<g id="Trusted Seed Logo">
<g id="Rectangle 64" filter="url(#filter0_bd_325_588)">
<rect x="4" width="93" height="93" rx="46.5" fill="url(#paint0_linear_325_588)" fill-opacity="0.2" shape-rendering="crispEdges"/>
<rect x="4.5" y="0.5" width="92" height="92" rx="46" stroke="white" stroke-opacity="0.2" shape-rendering="crispEdges"/>
</g>
<path id="Vector" d="M55.0853 63.1923L60.7506 56.6882C60.9378 58.1175 60.7219 61.4783 55.0853 63.1923ZM50.0508 61.6849V41.3638C48.1328 42.7942 41.2111 49.1796 50.0508 61.6849ZM50.9502 41.3638V61.6849C59.7893 49.1796 52.8677 42.7942 50.9502 41.3638ZM50.0508 37.0214V23C49.4684 23.3126 48.3593 24.004 46.9495 25.3382V33.4491C46.949 33.6257 46.9845 33.8006 47.0539 33.9637C47.1234 34.1269 47.2255 34.275 47.3542 34.3996L50.0508 37.0214ZM65.8273 48.0695C65.1359 45.5898 64.4022 43.3478 63.645 41.3196V51.332L66.0685 48.9752C65.9931 48.6779 65.9133 48.3767 65.8273 48.0695ZM62.7456 49.0681V39.0333C61.1975 35.2992 59.5841 32.3937 58.0562 30.1424V44.154C58.0569 44.3276 58.0934 44.4994 58.1637 44.659C58.234 44.8186 58.3367 44.9629 58.4655 45.0832L62.7456 49.0681ZM54.3978 62.6282L60.1682 56.005C58.8714 56.0143 55.1258 56.574 54.3978 62.6282ZM53.9998 27.7709V25.2901C52.6147 23.9871 51.5264 23.3088 50.9502 23V31.1601L53.6918 28.494C53.7899 28.3993 53.8676 28.2867 53.9204 28.1625C53.9733 28.0384 54.0003 27.9053 53.9998 27.7709ZM41.6653 44.6596V39.8313L39.0233 37.2624C38.7036 37.9708 38.385 38.713 38.0676 39.4891V48.7085L41.2662 45.598C41.3933 45.4755 41.494 45.3296 41.5625 45.1689C41.631 45.0081 41.666 44.8358 41.6653 44.6618V44.6596ZM40.907 56.1204L46.7364 62.6643C45.8994 56.7385 42.2966 56.1307 40.907 56.1225V56.1204ZM46.0006 63.1737L40.2459 56.7161C40.07 58.077 40.2369 61.5449 46.0006 63.1759V63.1737ZM66.3096 49.9759L63.6349 52.5759C63.5858 53.1529 63.3525 53.7006 62.9677 54.1424L61.4904 55.8367C61.6241 56.2871 62.0671 58.1497 60.9608 60.1266C59.8866 62.0461 57.7319 63.4317 54.5569 64.2455L54.1072 64.3603L54.0802 64.3384L52.4416 66.2197C52.3518 66.4479 52.2202 66.6585 52.0531 66.8411C52.3016 66.8613 52.559 66.8815 52.8131 66.9012C53.0903 66.9307 53.5608 66.9717 54.1657 66.9881C54.3034 66.9941 54.4141 66.9963 54.4866 66.9941C59.0602 67.0466 69.8151 65.5594 66.3096 49.9781V49.9759ZM48.4717 65.948L47.0327 64.3324L46.6094 64.234C43.4153 63.494 41.2274 62.1571 40.1071 60.2633C38.8563 58.1492 39.4286 56.1258 39.4977 55.9023L39.5044 55.881L37.9451 54.132C37.4442 53.5695 37.1684 52.8505 37.1682 52.1064V41.8262C36.4773 43.72 35.8073 45.7948 35.1726 48.0695C30.2887 65.5802 41.9436 67.0734 46.6245 66.9974L46.6712 66.9941C46.805 66.9941 46.9332 66.9881 47.0546 66.9832C47.5262 66.9686 47.9968 66.9305 48.4644 66.869V66.8608L48.9316 66.8263C48.7064 66.5756 48.5485 66.2746 48.4717 65.9502V65.948ZM52.4663 64.8434L53.3944 63.7776L53.4259 63.3371C53.6558 60.1605 54.6502 57.8469 56.3822 56.4614C57.459 55.6021 58.8083 55.1311 60.2014 55.1284C60.3747 55.1272 60.548 55.1363 60.7202 55.1557L60.8888 55.177L62.2829 53.5772C62.5822 53.2333 62.7465 52.7974 62.7467 52.3469V50.2766L57.8437 45.7193C57.627 45.5172 57.4545 45.2746 57.3365 45.0061C57.2185 44.7376 57.1573 44.4487 57.1568 44.1567V28.8766C56.4608 27.9357 55.7069 27.0366 54.8992 26.1843V27.7693C54.8999 28.0185 54.8498 28.2654 54.7517 28.4957C54.6537 28.726 54.5097 28.9352 54.3281 29.1111L50.9502 32.3953V40.2942L50.9862 40.3166C51.1734 40.4308 52.1599 41.0638 53.2347 42.2738C53.8582 42.9747 54.3966 43.7432 54.8391 44.5639C55.3846 45.5774 55.776 46.6625 56.001 47.7853C56.4108 49.8202 56.2922 52.0157 55.6497 54.3107C54.8975 56.9954 53.413 59.8539 51.2375 62.8075L50.9688 63.1726H50.9502V63.529C51.2974 63.6046 51.6189 63.7653 51.8842 63.9958C52.1496 64.2262 52.3499 64.5187 52.4663 64.8456V64.8434ZM40.1717 55.2945L40.2279 55.2863C40.443 55.2574 40.6601 55.2437 40.8772 55.2453C42.2766 55.2473 43.632 55.7202 44.7132 56.5838C46.4081 57.9415 47.4188 60.2004 47.7184 63.2983L47.7618 63.7449L47.7269 63.7744L48.5791 64.7314C48.7075 64.4309 48.9083 64.1647 49.1646 63.9555C49.421 63.7462 49.7253 63.5999 50.0519 63.529V63.1726H50.0328L49.7641 62.8075C47.5886 59.8561 46.104 56.9954 45.3519 54.3107C44.7093 52.0152 44.5907 49.8202 45.0005 47.7853C45.2255 46.6625 45.6169 45.5774 46.1625 44.5639C46.605 43.7432 47.1433 42.9747 47.7668 42.2738C48.8416 41.0638 49.8282 40.4308 50.0154 40.3166L50.0519 40.2942V38.2561L46.7195 35.0161C46.5069 34.8107 46.3383 34.5662 46.2236 34.2969C46.1088 34.0277 46.0502 33.7389 46.0511 33.4475V26.2378C44.9876 27.3599 43.8026 28.8214 42.5659 30.7119V44.6618C42.5666 44.9506 42.5085 45.2368 42.3949 45.5037C42.2812 45.7706 42.1143 46.0129 41.9037 46.2167L38.0676 49.9448V52.1075C38.0677 52.6411 38.2655 53.1568 38.6247 53.5603L40.1717 55.2945ZM41.6653 32.1532C40.9199 33.4048 40.1639 34.8166 39.4168 36.4065L41.6653 38.5928V32.1532ZM52.0087 65.3654C52.0059 65.3359 52.0025 65.3069 51.998 65.2779C51.9647 65.0625 51.8821 64.857 51.7563 64.6767C51.7019 64.5983 51.64 64.5251 51.5714 64.4581C51.4154 64.3062 51.2272 64.1893 51.0199 64.1154C50.9496 64.0903 50.8775 64.0704 50.8041 64.0558C50.7793 64.0509 50.754 64.0465 50.7293 64.0427C50.6785 64.035 50.6272 64.0301 50.5758 64.028C50.55 64.028 50.5241 64.028 50.4982 64.028C50.3201 64.0278 50.1433 64.0582 49.976 64.1176C49.9297 64.1336 49.8843 64.1518 49.84 64.1723C49.7956 64.193 49.7529 64.216 49.7107 64.2406C49.6685 64.2652 49.6286 64.2919 49.5898 64.3198C49.5507 64.3489 49.5132 64.3799 49.4774 64.4127C49.442 64.4436 49.4085 64.4762 49.3768 64.5106C49.3605 64.5281 49.3447 64.5456 49.329 64.5652C49.3133 64.5849 49.2863 64.6199 49.2666 64.645C49.2469 64.6702 49.2334 64.6909 49.2177 64.715C49.2019 64.739 49.1896 64.7593 49.1761 64.7822C49.1497 64.8278 49.1259 64.8746 49.1047 64.9227C49.0942 64.9467 49.0841 64.9713 49.0743 64.9965C49.0474 65.0688 49.0262 65.1429 49.0108 65.2184C49.0069 65.2386 49.003 65.2588 49.0002 65.279C48.9923 65.3283 48.9871 65.3779 48.9844 65.4277C48.9844 65.4528 48.9844 65.478 48.9844 65.5037C48.9844 65.5294 48.9844 65.5545 48.9844 65.5796C48.9958 65.8064 49.0614 66.0274 49.1761 66.2251C49.1896 66.2481 49.2031 66.2705 49.2177 66.2924C49.2323 66.3142 49.2492 66.3394 49.2666 66.3623C49.284 66.3853 49.3071 66.417 49.329 66.4421C49.3509 66.4673 49.3605 66.4782 49.3768 66.4968C49.4085 66.5311 49.442 66.5638 49.4774 66.5946C49.5132 66.6274 49.5507 66.6584 49.5898 66.6875C49.6286 66.7154 49.6691 66.7422 49.7107 66.7668L49.7163 66.77C49.7562 66.7935 49.7978 66.8149 49.84 66.8351C49.8843 66.8555 49.9297 66.8738 49.976 66.8897C50.1433 66.9492 50.3201 66.9795 50.4982 66.9794C50.5241 66.9794 50.55 66.9794 50.5758 66.9794C50.6272 66.9772 50.6785 66.9723 50.7293 66.9646C50.754 66.9608 50.7793 66.9564 50.8041 66.9515C50.8775 66.937 50.9496 66.9171 51.0199 66.8919C51.0623 66.8766 51.1039 66.8597 51.1447 66.8411C51.1852 66.8225 51.2246 66.8023 51.2633 66.7799C51.2914 66.764 51.3195 66.7471 51.3465 66.7296C51.4697 66.6489 51.58 66.5509 51.6737 66.4388C51.7029 66.4039 51.7299 66.3683 51.7563 66.3295C51.9104 66.1071 51.9994 65.848 52.0138 65.5802C52.0138 65.555 52.0138 65.5299 52.0138 65.5042C52.0138 65.4785 52.0138 65.4534 52.0138 65.4282C52.0138 65.4031 52.0132 65.3878 52.0087 65.3676V65.3654Z" fill="white" fill-opacity="0.33"/>
</g>
<defs>
<filter id="filter0_bd_325_588" x="-6" y="-10" width="113" height="113" filterUnits="userSpaceOnUse" color-interpolation-filters="sRGB">
<feFlood flood-opacity="0" result="BackgroundImageFix"/>
<feGaussianBlur in="BackgroundImageFix" stdDeviation="5"/>
<feComposite in2="SourceAlpha" operator="in" result="effect1_backgroundBlur_325_588"/>
<feColorMatrix in="SourceAlpha" type="matrix" values="0 0 0 0 0 0 0 0 0 0 0 0 0 0 0 0 0 0 127 0" result="hardAlpha"/>
<feOffset dy="4"/>
<feGaussianBlur stdDeviation="2"/>
<feComposite in2="hardAlpha" operator="out"/>
<feColorMatrix type="matrix" values="0 0 0 0 0 0 0 0 0 0 0 0 0 0 0 0 0 0 0.1 0"/>
<feBlend mode="normal" in2="effect1_backgroundBlur_325_588" result="effect2_dropShadow_325_588"/>
<feBlend mode="normal" in="SourceGraphic" in2="effect2_dropShadow_325_588" result="shape"/>
</filter>
<linearGradient id="paint0_linear_325_588" x1="50.5" y1="0" x2="50.5" y2="93" gradientUnits="userSpaceOnUse">
<stop stop-color="white"/>
<stop offset="1" stop-color="white" stop-opacity="0"/>
</linearGradient>
</defs>
</svg>
