<svg width="33" height="44" viewBox="0 0 33 44" fill="none" xmlns="http://www.w3.org/2000/svg">
<g clip-path="url(#clip0_621_554)">
<path d="M21.0853 40.1923L26.7506 33.6882C26.9378 35.1175 26.7219 38.4783 21.0853 40.1923ZM16.0508 38.6849V18.3638C14.1328 19.7942 7.21111 26.1796 16.0508 38.6849ZM16.9502 18.3638V38.6849C25.7893 26.1796 18.8677 19.7942 16.9502 18.3638ZM16.0508 14.0214V0C15.4684 0.312631 14.3593 1.00403 12.9495 2.33818V10.4491C12.949 10.6257 12.9845 10.8006 13.0539 10.9637C13.1234 11.1269 13.2255 11.275 13.3542 11.3996L16.0508 14.0214ZM31.8273 25.0695C31.1359 22.5898 30.4022 20.3478 29.645 18.3196V28.332L32.0684 25.9752C31.9931 25.6779 31.9133 25.3767 31.8273 25.0695ZM28.7456 26.0681V16.0333C27.1975 12.2992 25.5841 9.3937 24.0562 7.14243V21.154C24.0569 21.3276 24.0934 21.4994 24.1637 21.659C24.234 21.8186 24.3367 21.9629 24.4655 22.0832L28.7456 26.0681ZM20.3978 39.6282L26.1682 33.005C24.8714 33.0143 21.1258 33.574 20.3978 39.6282ZM19.9998 4.77091V2.29008C18.6147 0.987086 17.5264 0.308806 16.9502 0V8.16012L19.6918 5.49401C19.7899 5.39934 19.8676 5.28666 19.9204 5.16253C19.9733 5.03839 20.0003 4.90527 19.9998 4.77091ZM7.66533 21.6596V16.8313L5.02327 14.2624C4.7036 14.9708 4.38505 15.713 4.06763 16.4891V25.7085L7.26623 22.598C7.3933 22.4755 7.49399 22.3296 7.56251 22.1689C7.63103 22.0081 7.66599 21.8358 7.66533 21.6618V21.6596ZM6.90699 33.1204L12.7364 39.6643C11.8994 33.7385 8.2966 33.1307 6.90699 33.1225V33.1204ZM12.0006 40.1737L6.24592 33.7161C6.06997 35.077 6.23694 38.5449 12.0006 40.1759V40.1737ZM32.3096 26.9759L29.6349 29.5759C29.5858 30.1529 29.3525 30.7006 28.9677 31.1424L27.4904 32.8367C27.6241 33.2871 28.0671 35.1497 26.9608 37.1266C25.8866 39.0461 23.7319 40.4317 20.5569 41.2455L20.1072 41.3603L20.0802 41.3384L18.4416 43.2197C18.3518 43.4479 18.2202 43.6585 18.0531 43.8411C18.3016 43.8613 18.559 43.8815 18.8131 43.9012C19.0903 43.9307 19.5608 43.9717 20.1657 43.9881C20.3034 43.9941 20.4141 43.9963 20.4866 43.9941C25.0602 44.0466 35.8151 42.5594 32.3096 26.9781V26.9759ZM14.4717 42.948L13.0327 41.3324L12.6094 41.234C9.41529 40.494 7.22744 39.1571 6.10709 37.2633C4.85633 35.1492 5.42859 33.1258 5.49774 32.9023L5.50444 32.881L3.9451 31.132C3.44416 30.5695 3.16835 29.8504 3.1682 29.1064V18.8262C2.47733 20.72 1.80726 22.7948 1.1726 25.0695C-3.71128 42.5802 7.94357 44.0734 12.6245 43.9974L12.6712 43.9941C12.805 43.9941 12.9332 43.9881 13.0546 43.9832C13.5262 43.9686 13.9968 43.9305 14.4644 43.869V43.8608L14.9316 43.8263C14.7064 43.5755 14.5485 43.2746 14.4717 42.9502V42.948ZM18.4663 41.8434L19.3944 40.7776L19.4259 40.3371C19.6558 37.1605 20.6502 34.8469 22.3822 33.4614C23.459 32.6021 24.8083 32.1311 26.2014 32.1284C26.3747 32.1272 26.548 32.1363 26.7202 32.1557L26.8888 32.177L28.2829 30.5772C28.5822 30.2333 28.7465 29.7974 28.7467 29.3469V27.2766L23.8437 22.7193C23.627 22.5172 23.4545 22.2746 23.3365 22.0061C23.2185 21.7376 23.1573 21.4487 23.1568 21.1567V5.8766C22.4608 4.93573 21.7069 4.03664 20.8992 3.18425V4.76927C20.8999 5.01851 20.8498 5.26542 20.7517 5.49572C20.6537 5.72602 20.5097 5.93517 20.3281 6.11107L16.9502 9.39534V17.2942L16.9862 17.3166C17.1734 17.4308 18.1599 18.0638 19.2347 19.2738C19.8582 19.9747 20.3966 20.7432 20.8391 21.5639C21.3846 22.5774 21.776 23.6625 22.001 24.7853C22.4108 26.8202 22.2922 29.0157 21.6497 31.3107C20.8975 33.9954 19.413 36.8539 17.2375 39.8075L16.9688 40.1726H16.9502V40.529C17.2974 40.6046 17.6189 40.7653 17.8842 40.9958C18.1496 41.2262 18.3499 41.5187 18.4663 41.8456V41.8434ZM6.1717 32.2945L6.22792 32.2863C6.44303 32.2574 6.66007 32.2437 6.87723 32.2453C8.27655 32.2473 9.63197 32.7202 10.7132 33.5838C12.4081 34.9415 13.4188 37.2004 13.7184 40.2983L13.7618 40.7448L13.7269 40.7744L14.5791 41.7314C14.7075 41.4308 14.9083 41.1647 15.1646 40.9555C15.421 40.7462 15.7253 40.5999 16.0519 40.529V40.1726H16.0328L15.7641 39.8075C13.5886 36.8561 12.104 33.9954 11.3519 31.3107C10.7093 29.0152 10.5907 26.8202 11.0005 24.7853C11.2255 23.6625 11.6169 22.5774 12.1625 21.5639C12.605 20.7432 13.1433 19.9747 13.7668 19.2738C14.8416 18.0638 15.8282 17.4308 16.0154 17.3166L16.0519 17.2942V15.2561L12.7195 12.0161C12.5069 11.8107 12.3383 11.5662 12.2236 11.2969C12.1088 11.0277 12.0502 10.7389 12.0511 10.4475V3.23782C10.9876 4.3599 9.80256 5.8214 8.56585 7.71195V21.6618C8.56661 21.9506 8.50851 22.2368 8.39485 22.5037C8.28119 22.7706 8.11425 23.0129 7.90369 23.2167L4.06763 26.9448V29.1075C4.06773 29.6411 4.2655 30.1568 4.62472 30.5603L6.1717 32.2945ZM7.66533 9.15322C6.91993 10.4048 6.16385 11.8166 5.41677 13.4065L7.66533 15.5928V9.15322ZM18.0087 42.3654C18.0059 42.3359 18.0025 42.3069 17.998 42.2779C17.9647 42.0625 17.8821 41.857 17.7563 41.6767C17.7019 41.5983 17.64 41.5251 17.5714 41.4581C17.4154 41.3062 17.2272 41.1893 17.0199 41.1154C16.9496 41.0903 16.8775 41.0704 16.8041 41.0558C16.7793 41.0509 16.754 41.0465 16.7293 41.0427C16.6785 41.035 16.6272 41.0301 16.5758 41.028C16.55 41.028 16.5241 41.028 16.4982 41.028C16.3201 41.0278 16.1433 41.0582 15.976 41.1176C15.9297 41.1336 15.8843 41.1518 15.84 41.1723C15.7956 41.193 15.7529 41.216 15.7107 41.2406C15.6685 41.2652 15.6286 41.2919 15.5898 41.3198C15.5507 41.3489 15.5132 41.3799 15.4774 41.4127C15.442 41.4436 15.4084 41.4762 15.3768 41.5106C15.3605 41.5281 15.3447 41.5456 15.329 41.5652C15.3133 41.5849 15.2863 41.6199 15.2666 41.645C15.2469 41.6702 15.2334 41.6909 15.2177 41.715C15.2019 41.739 15.1896 41.7593 15.1761 41.7822C15.1497 41.8278 15.1259 41.8746 15.1047 41.9227C15.0942 41.9467 15.0841 41.9713 15.0743 41.9965C15.0474 42.0688 15.0262 42.1429 15.0108 42.2184C15.0069 42.2386 15.003 42.2588 15.0002 42.279C14.9923 42.3283 14.9871 42.3779 14.9844 42.4277C14.9844 42.4528 14.9844 42.478 14.9844 42.5037C14.9844 42.5294 14.9844 42.5545 14.9844 42.5796C14.9958 42.8064 15.0614 43.0274 15.1761 43.2251C15.1896 43.2481 15.2031 43.2705 15.2177 43.2924C15.2323 43.3142 15.2492 43.3394 15.2666 43.3623C15.284 43.3853 15.3071 43.417 15.329 43.4421C15.3509 43.4673 15.3605 43.4782 15.3768 43.4968C15.4084 43.5311 15.442 43.5638 15.4774 43.5946C15.5132 43.6274 15.5507 43.6584 15.5898 43.6875C15.6286 43.7154 15.6691 43.7422 15.7107 43.7668L15.7163 43.77C15.7562 43.7935 15.7978 43.8149 15.84 43.8351C15.8843 43.8555 15.9297 43.8738 15.976 43.8897C16.1433 43.9492 16.3201 43.9795 16.4982 43.9794C16.5241 43.9794 16.55 43.9794 16.5758 43.9794C16.6272 43.9772 16.6785 43.9723 16.7293 43.9646C16.754 43.9608 16.7793 43.9564 16.8041 43.9515C16.8775 43.937 16.9496 43.9171 17.0199 43.8919C17.0623 43.8766 17.1039 43.8597 17.1447 43.8411C17.1852 43.8225 17.2246 43.8023 17.2633 43.7799C17.2914 43.764 17.3195 43.7471 17.3465 43.7296C17.4697 43.6489 17.58 43.5509 17.6737 43.4388C17.7029 43.4039 17.7299 43.3683 17.7563 43.3295C17.9104 43.1071 17.9994 42.848 18.0138 42.5802C18.0138 42.555 18.0138 42.5299 18.0138 42.5042C18.0138 42.4785 18.0138 42.4534 18.0138 42.4282C18.0138 42.4031 18.0132 42.3878 18.0087 42.3676V42.3654Z" fill="white" fill-opacity="0.33"/>
</g>
<defs>
<clipPath id="clip0_621_554">
<rect width="33" height="44" fill="white"/>
</clipPath>
</defs>
</svg>
