<svg width="24" height="24" viewBox="0 0 24 24" fill="none" xmlns="http://www.w3.org/2000/svg">
<g clip-path="url(#clip0_1350_1183)">
<path d="M24 12C24 5.37258 18.6274 0 12 0C5.37258 0 0 5.37258 0 12C0 18.6274 5.37258 24 12 24C18.6274 24 24 18.6274 24 12Z" fill="#04795B"/>
<path d="M8.7397 13.0867C9.2123 13.0867 9.64858 12.9292 10 12.6566L7.11578 9.77344C6.8431 10.1187 6.68558 10.5548 6.68558 11.0333C6.6795 12.166 7.60054 13.0867 8.7397 13.0867Z" fill="#EFEFEF"/>
<path d="M17.3198 11.0275C17.3198 10.555 17.1623 10.1189 16.8896 9.76758L14.0054 12.6508C14.3507 12.9233 14.787 13.0808 15.2657 13.0808C16.3988 13.0869 17.3198 12.1662 17.3198 11.0275Z" fill="#EFEFEF"/>
<path d="M18.7739 7.89648L17.4954 9.17452C17.9196 9.68332 18.174 10.3254 18.174 11.0401C18.174 12.6452 16.8713 13.9475 15.2656 13.9475C14.5566 13.9475 13.9083 13.6931 13.3993 13.2691L11.9996 14.6683L10.5999 13.2691C10.0909 13.6931 9.4486 13.9475 8.7336 13.9475C7.12788 13.9475 5.82516 12.6452 5.82516 11.0401C5.82516 10.3314 6.07964 9.68332 6.5038 9.17452L5.84936 8.52036L5.22528 7.89648C4.49816 9.0958 4.08008 10.495 4.08008 11.9972C4.08008 16.3704 7.62476 19.9077 11.9935 19.9077C16.3623 19.9077 19.907 16.3643 19.907 11.9972C19.9191 10.4889 19.501 9.08972 18.7739 7.89648Z" fill="#EFEFEF"/>
<path d="M17.7254 6.5332C16.2893 5.025 14.2534 4.08008 11.9993 4.08008C9.74526 4.08008 7.71538 5.025 6.27326 6.5332C6.07938 6.73916 5.89154 6.9572 5.71582 7.18132L11.9933 13.4565L18.2707 7.17528C18.1132 6.9572 17.9253 6.73308 17.7254 6.5332ZM11.9993 5.1098C13.8535 5.1098 15.5743 5.82452 16.865 7.1268L11.9993 11.9906L7.1337 7.1268C8.43038 5.82452 10.1452 5.1098 11.9993 5.1098Z" fill="#EFEFEF"/>
</g>
<defs>
<clipPath id="clip0_1350_1183">
<rect width="24" height="24" fill="white"/>
</clipPath>
</defs>
</svg>
