<svg width="16" height="16" viewBox="0 0 16 16" fill="none" xmlns="http://www.w3.org/2000/svg">
<path fill-rule="evenodd" clip-rule="evenodd" d="M16 8C16 12.4183 12.4183 16 8 16C3.58172 16 0 12.4183 0 8C0 3.58172 3.58172 0 8 0C12.4183 0 16 3.58172 16 8ZM15 8C15 11.866 11.866 15 8 15C4.13401 15 1 11.866 1 8C1 4.13401 4.13401 1 8 1C11.866 1 15 4.13401 15 8Z" fill="white"/>
<path fill-rule="evenodd" clip-rule="evenodd" d="M8 13C7.72386 13 7.5 12.7761 7.5 12.5L7.5 6.5C7.5 6.22386 7.72386 6 8 6C8.27614 6 8.5 6.22386 8.5 6.5L8.5 12.5C8.5 12.7761 8.27614 13 8 13Z" fill="white"/>
<circle cx="8" cy="4" r="1" fill="white"/>
</svg>
