<svg width="34" height="40" viewBox="0 0 34 40" fill="none" xmlns="http://www.w3.org/2000/svg">
<path d="M0.0182336 22.0152C0.543662 32.7944 10.4538 37.9131 15.3432 39.125C11.4024 34.4198 8.11873 29.2868 8.11873 21.8013C8.11873 15.8129 12.2784 9.39668 12.2784 9.39668L8.99445 9.1828C10.2204 5.93194 14.1756 3.12307 16 2.125C10.4538 4.26373 -0.507194 11.236 0.0182336 22.0152Z" fill="#FFC555"/>
<path d="M16.4686 9.55056C13.5269 16.1937 15.6755 24.7015 17.1175 28.125C19.4968 26.9596 24.9476 23.099 27.7163 16.9804C30.485 10.8617 30.1677 3.57761 29.663 0.809649C28.7978 -0.0644421 24.4717 -0.282707 22.525 1.24685C20.3856 2.9278 20.0015 7.87522 20.362 9.98761L16.4686 9.55056Z" fill="#80E43A"/>
<path d="M27.7805 35.3372C24.5157 38.0737 19.3348 38.7312 17.1525 38.7179C17.4104 37.3412 18.6756 33.9504 21.6726 31.4014C24.6697 28.8524 28.8481 27.5568 30.5009 27.2494C31.1421 27.492 31.9966 29.5305 31.4594 30.7715C30.869 32.1353 29.0377 35.0907 27.7805 35.3372Z" fill="#80E43A"/>
</svg>
