<svg width="170" height="30" viewBox="0 0 170 30" fill="none" xmlns="http://www.w3.org/2000/svg">
<path d="M0.151989 23V1.18182H8.33381C10.0099 1.18182 11.4162 1.47301 12.5526 2.0554C13.696 2.63778 14.5589 3.45454 15.1413 4.50568C15.7308 5.54972 16.0256 6.76776 16.0256 8.1598C16.0256 9.55895 15.7273 10.7734 15.1307 11.8033C14.5412 12.826 13.6712 13.6179 12.5206 14.179C11.37 14.733 9.95668 15.0099 8.28054 15.0099H2.45312V11.7287H7.74787C8.72798 11.7287 9.53054 11.5937 10.1555 11.3239C10.7805 11.0469 11.2422 10.6456 11.5405 10.12C11.8459 9.58736 11.9986 8.93395 11.9986 8.1598C11.9986 7.38565 11.8459 6.72514 11.5405 6.17827C11.2351 5.62429 10.7699 5.20526 10.1449 4.92116C9.51989 4.62997 8.71378 4.48438 7.72656 4.48438H4.1044V23H0.151989ZM11.4233 13.1136L16.8246 23H12.4141L7.10866 13.1136H11.4233ZM26.5032 23.3196C24.8626 23.3196 23.4457 22.9787 22.2525 22.2969C21.0664 21.608 20.1538 20.6349 19.5146 19.3778C18.8754 18.1136 18.5558 16.6257 18.5558 14.9141C18.5558 13.2308 18.8754 11.7536 19.5146 10.4822C20.1609 9.20383 21.0629 8.20952 22.2205 7.49929C23.3782 6.78196 24.7383 6.4233 26.3008 6.4233C27.3093 6.4233 28.261 6.58665 29.1559 6.91335C30.0579 7.23295 30.8533 7.73011 31.5423 8.40483C32.2383 9.07955 32.7852 9.93892 33.1829 10.983C33.5806 12.0199 33.7795 13.2557 33.7795 14.6903V15.8729H20.3668V13.2734H30.0827C30.0756 12.5348 29.9158 11.8778 29.6033 11.3026C29.2908 10.7202 28.854 10.2621 28.293 9.92827C27.739 9.59446 27.0927 9.42756 26.354 9.42756C25.5657 9.42756 24.8732 9.61932 24.2766 10.0028C23.68 10.3793 23.2148 10.8764 22.881 11.4943C22.5543 12.1051 22.3874 12.7763 22.3803 13.5078V15.777C22.3803 16.7287 22.5543 17.5455 22.9023 18.2273C23.2504 18.902 23.7369 19.4205 24.3619 19.7827C24.9869 20.1378 25.7184 20.3153 26.5565 20.3153C27.1175 20.3153 27.6254 20.2372 28.0799 20.081C28.5344 19.9176 28.9286 19.6797 29.2624 19.3672C29.5962 19.0547 29.8484 18.6676 30.0188 18.206L33.6197 18.6108C33.3924 19.5625 32.9592 20.3935 32.32 21.1037C31.6879 21.8068 30.8782 22.3537 29.891 22.7443C28.9038 23.1278 27.7745 23.3196 26.5032 23.3196ZM44.1586 29.4773C42.7736 29.4773 41.584 29.2891 40.5897 28.9126C39.5953 28.5433 38.7963 28.0462 38.1926 27.4212C37.589 26.7962 37.1699 26.1037 36.9355 25.3438L40.4086 24.5021C40.5648 24.8217 40.7921 25.1378 41.0904 25.4503C41.3887 25.7699 41.79 26.0327 42.2942 26.2386C42.8056 26.4517 43.4483 26.5582 44.2225 26.5582C45.3162 26.5582 46.2218 26.2919 46.9391 25.7592C47.6564 25.2337 48.0151 24.3672 48.0151 23.1598V20.0597H47.8233C47.6245 20.4574 47.3333 20.8658 46.9498 21.2848C46.5733 21.7038 46.0726 22.0554 45.4476 22.3395C44.8297 22.6236 44.052 22.7656 43.1145 22.7656C41.8574 22.7656 40.7175 22.4709 39.6948 21.8814C38.6792 21.2848 37.8695 20.397 37.2658 19.218C36.6692 18.032 36.3709 16.5476 36.3709 14.7649C36.3709 12.968 36.6692 11.4517 37.2658 10.2159C37.8695 8.97301 38.6827 8.03196 39.7054 7.39276C40.7282 6.74645 41.8681 6.4233 43.1252 6.4233C44.084 6.4233 44.8723 6.58665 45.4902 6.91335C46.1152 7.23295 46.6124 7.62003 46.9817 8.07457C47.351 8.52202 47.6316 8.9446 47.8233 9.34233H48.0364V6.63636H51.8397V23.2663C51.8397 24.6655 51.5059 25.8232 50.8382 26.7393C50.1706 27.6555 49.258 28.3409 48.1003 28.7955C46.9426 29.25 45.6287 29.4773 44.1586 29.4773ZM44.1905 19.7401C45.0073 19.7401 45.7033 19.5412 46.2786 19.1435C46.8539 18.7457 47.2907 18.174 47.589 17.4283C47.8873 16.6825 48.0364 15.7876 48.0364 14.7436C48.0364 13.7138 47.8873 12.8118 47.589 12.0376C47.2978 11.2635 46.8645 10.6634 46.2892 10.2372C45.7211 9.80398 45.0215 9.58736 44.1905 9.58736C43.3311 9.58736 42.6138 9.81108 42.0385 10.2585C41.4632 10.706 41.03 11.3203 40.7388 12.1016C40.4476 12.8757 40.302 13.7564 40.302 14.7436C40.302 15.745 40.4476 16.6222 40.7388 17.375C41.0371 18.1207 41.4739 18.7031 42.0492 19.1222C42.6316 19.5341 43.3453 19.7401 44.1905 19.7401ZM63.0364 23.3196C61.3958 23.3196 59.9789 22.9787 58.7857 22.2969C57.5996 21.608 56.687 20.6349 56.0478 19.3778C55.4086 18.1136 55.089 16.6257 55.089 14.9141C55.089 13.2308 55.4086 11.7536 56.0478 10.4822C56.6941 9.20383 57.5961 8.20952 58.7537 7.49929C59.9114 6.78196 61.2715 6.4233 62.834 6.4233C63.8425 6.4233 64.7942 6.58665 65.6891 6.91335C66.5911 7.23295 67.3865 7.73011 68.0755 8.40483C68.7715 9.07955 69.3184 9.93892 69.7161 10.983C70.1138 12.0199 70.3127 13.2557 70.3127 14.6903V15.8729H56.9V13.2734H66.6159C66.6088 12.5348 66.449 11.8778 66.1365 11.3026C65.824 10.7202 65.3873 10.2621 64.8262 9.92827C64.2722 9.59446 63.6259 9.42756 62.8873 9.42756C62.0989 9.42756 61.4064 9.61932 60.8098 10.0028C60.2132 10.3793 59.748 10.8764 59.4142 11.4943C59.0875 12.1051 58.9206 12.7763 58.9135 13.5078V15.777C58.9135 16.7287 59.0875 17.5455 59.4355 18.2273C59.7836 18.902 60.2701 19.4205 60.8951 19.7827C61.5201 20.1378 62.2516 20.3153 63.0897 20.3153C63.6507 20.3153 64.1586 20.2372 64.6131 20.081C65.0676 19.9176 65.4618 19.6797 65.7956 19.3672C66.1294 19.0547 66.3816 18.6676 66.552 18.206L70.1529 18.6108C69.9256 19.5625 69.4924 20.3935 68.8532 21.1037C68.2211 21.8068 67.4114 22.3537 66.4242 22.7443C65.437 23.1278 64.3077 23.3196 63.0364 23.3196ZM77.4318 13.4119V23H73.5753V6.63636H77.2614V9.4169H77.4531C77.8295 8.50071 78.4297 7.77273 79.2536 7.23295C80.0845 6.69318 81.1108 6.4233 82.3324 6.4233C83.4616 6.4233 84.4453 6.66477 85.2834 7.14773C86.1286 7.63068 86.782 8.33026 87.2436 9.24645C87.7124 10.1626 87.9432 11.2741 87.9361 12.581V23H84.0795V13.1776C84.0795 12.0838 83.7955 11.228 83.2273 10.6101C82.6662 9.99219 81.8885 9.68324 80.8942 9.68324C80.2195 9.68324 79.6193 9.83239 79.0938 10.1307C78.5753 10.4219 78.1669 10.8445 77.8686 11.3984C77.5774 11.9524 77.4318 12.6236 77.4318 13.4119ZM104.619 6.63636C104.499 5.42187 103.962 4.45597 103.011 3.73864C102.059 3.02131 100.862 2.66264 99.4205 2.66264C98.4048 2.66264 97.5099 2.83665 96.7358 3.18466C95.9688 3.53267 95.3651 4.01562 94.9247 4.63352C94.4915 5.24432 94.2749 5.94034 94.2749 6.72159C94.2749 7.29688 94.3991 7.80114 94.6477 8.23438C94.8963 8.66761 95.2301 9.04048 95.6491 9.35298C96.0753 9.65838 96.544 9.92116 97.0554 10.1413C97.5739 10.3615 98.0959 10.5462 98.6214 10.6953L100.923 11.3558C101.619 11.5476 102.315 11.7926 103.011 12.0909C103.707 12.3892 104.342 12.7656 104.918 13.2202C105.5 13.6676 105.965 14.218 106.313 14.8714C106.668 15.5178 106.846 16.2955 106.846 17.2045C106.846 18.3693 106.544 19.4169 105.94 20.3473C105.337 21.2777 104.47 22.0163 103.341 22.5632C102.212 23.103 100.859 23.3729 99.282 23.3729C97.7976 23.3729 96.5085 23.1278 95.4148 22.6378C94.321 22.1406 93.4616 21.4553 92.8366 20.5817C92.2116 19.7081 91.8601 18.696 91.782 17.5455H93.8274C93.8984 18.4048 94.1825 19.1328 94.6797 19.7294C95.1768 20.326 95.8232 20.7805 96.6186 21.093C97.4141 21.3984 98.3018 21.5511 99.282 21.5511C100.369 21.5511 101.335 21.37 102.18 21.0078C103.032 20.6385 103.7 20.1271 104.183 19.4737C104.673 18.8132 104.918 18.0462 104.918 17.1726C104.918 16.4339 104.726 15.8161 104.342 15.3189C103.959 14.8146 103.423 14.392 102.734 14.0511C102.052 13.7102 101.26 13.4084 100.358 13.1456L97.7479 12.3786C96.0362 11.8672 94.7081 11.1605 93.7635 10.2585C92.8189 9.35653 92.3466 8.20597 92.3466 6.80682C92.3466 5.63494 92.6591 4.60511 93.2841 3.71733C93.9162 2.82244 94.7685 2.12642 95.8409 1.62926C96.9205 1.125 98.1314 0.872868 99.4737 0.872868C100.83 0.872868 102.031 1.12145 103.075 1.61861C104.119 2.11577 104.946 2.80114 105.557 3.67471C106.175 4.54119 106.505 5.52841 106.548 6.63636H104.619ZM117.638 23.3409C116.175 23.3409 114.9 22.9751 113.813 22.2436C112.734 21.5121 111.896 20.5107 111.299 19.2393C110.702 17.968 110.404 16.5192 110.404 14.8928C110.404 13.2521 110.706 11.7926 111.31 10.5142C111.92 9.2358 112.766 8.23437 113.845 7.50994C114.925 6.77841 116.178 6.41264 117.606 6.41264C118.7 6.41264 119.69 6.62571 120.578 7.05185C121.466 7.47088 122.197 8.06392 122.773 8.83097C123.355 9.59091 123.721 10.4787 123.87 11.4943H121.952C121.754 10.571 121.274 9.78267 120.514 9.12926C119.761 8.46875 118.803 8.13849 117.638 8.13849C116.594 8.13849 115.67 8.42259 114.868 8.99077C114.065 9.55185 113.437 10.3366 112.982 11.3452C112.535 12.3466 112.311 13.5078 112.311 14.8288C112.311 16.157 112.531 17.3324 112.972 18.3551C113.412 19.3707 114.03 20.1662 114.825 20.7415C115.628 21.3168 116.565 21.6044 117.638 21.6044C118.362 21.6044 119.023 21.4695 119.619 21.1996C120.223 20.9226 120.727 20.532 121.132 20.0277C121.544 19.5234 121.821 18.9233 121.963 18.2273H123.881C123.739 19.2145 123.387 20.0952 122.826 20.8693C122.272 21.6364 121.551 22.2401 120.663 22.6804C119.783 23.1207 118.774 23.3409 117.638 23.3409ZM134.305 23.3409C132.892 23.3409 131.642 22.9822 130.555 22.2649C129.475 21.5476 128.63 20.5568 128.02 19.2926C127.409 18.0213 127.103 16.5547 127.103 14.8928C127.103 13.2166 127.409 11.7429 128.02 10.4716C128.63 9.19318 129.475 8.19886 130.555 7.48864C131.642 6.77131 132.892 6.41264 134.305 6.41264C135.718 6.41264 136.965 6.77131 138.044 7.48864C139.124 8.20597 139.969 9.20028 140.58 10.4716C141.198 11.7429 141.507 13.2166 141.507 14.8928C141.507 16.5547 141.201 18.0213 140.591 19.2926C139.98 20.5568 139.131 21.5476 138.044 22.2649C136.965 22.9822 135.718 23.3409 134.305 23.3409ZM134.305 21.6044C135.441 21.6044 136.404 21.299 137.192 20.6882C137.98 20.0774 138.577 19.2642 138.982 18.2486C139.394 17.233 139.6 16.1143 139.6 14.8928C139.6 13.6712 139.394 12.549 138.982 11.5263C138.577 10.5036 137.98 9.68324 137.192 9.06534C136.404 8.44744 135.441 8.13849 134.305 8.13849C133.176 8.13849 132.213 8.44744 131.418 9.06534C130.63 9.68324 130.029 10.5036 129.618 11.5263C129.213 12.549 129.01 13.6712 129.01 14.8928C129.01 16.1143 129.213 17.233 129.618 18.2486C130.029 19.2642 130.63 20.0774 131.418 20.6882C132.206 21.299 133.169 21.6044 134.305 21.6044ZM145.67 23V6.63636H147.513V9.15057H147.651C147.978 8.3267 148.546 7.66264 149.356 7.15838C150.172 6.64702 151.096 6.39133 152.126 6.39133C152.282 6.39133 152.456 6.39489 152.648 6.40199C152.839 6.40909 152.999 6.41619 153.127 6.4233V8.35156C153.042 8.33736 152.893 8.31605 152.68 8.28764C152.466 8.25923 152.236 8.24503 151.987 8.24503C151.135 8.24503 150.375 8.42614 149.707 8.78835C149.047 9.14347 148.525 9.63707 148.141 10.2692C147.758 10.9013 147.566 11.6222 147.566 12.4318V23H145.67ZM162.481 23.3409C160.954 23.3409 159.633 22.9858 158.518 22.2756C157.403 21.5582 156.54 20.5675 155.929 19.3033C155.325 18.032 155.023 16.5689 155.023 14.9141C155.023 13.2663 155.325 11.8033 155.929 10.5249C156.54 9.23935 157.381 8.23437 158.454 7.50994C159.533 6.77841 160.78 6.41264 162.193 6.41264C163.081 6.41264 163.937 6.57599 164.76 6.9027C165.584 7.2223 166.323 7.71591 166.976 8.38352C167.637 9.04403 168.159 9.87855 168.542 10.8871C168.926 11.8885 169.118 13.0746 169.118 14.4453V15.3828H156.334V13.7102H167.179C167.179 12.6591 166.966 11.7145 166.54 10.8764C166.121 10.0312 165.535 9.36364 164.782 8.87358C164.036 8.38352 163.173 8.13849 162.193 8.13849C161.156 8.13849 160.243 8.41548 159.455 8.96946C158.667 9.52344 158.049 10.255 157.601 11.1641C157.161 12.0732 156.937 13.0675 156.93 14.147V15.1484C156.93 16.4482 157.154 17.5845 157.601 18.5575C158.056 19.5234 158.699 20.2727 159.53 20.8054C160.361 21.3381 161.344 21.6044 162.481 21.6044C163.255 21.6044 163.933 21.4837 164.515 21.2422C165.105 21.0007 165.599 20.6776 165.996 20.2727C166.401 19.8608 166.706 19.4098 166.912 18.9197L168.713 19.5057C168.464 20.1946 168.056 20.8303 167.488 21.4126C166.927 21.995 166.224 22.4638 165.378 22.8189C164.54 23.1669 163.574 23.3409 162.481 23.3409Z" fill="white"/>
</svg>
