<svg width="170" height="30" viewBox="0 0 170 30" fill="none" xmlns="http://www.w3.org/2000/svg">
<path d="M0.151989 23.125V1.30682H8.33381C10.0099 1.30682 11.4162 1.59801 12.5526 2.1804C13.696 2.76278 14.5589 3.57954 15.1413 4.63068C15.7308 5.67472 16.0256 6.89276 16.0256 8.2848C16.0256 9.68395 15.7273 10.8984 15.1307 11.9283C14.5412 12.951 13.6712 13.7429 12.5206 14.304C11.37 14.858 9.95668 15.1349 8.28054 15.1349H2.45312V11.8537H7.74787C8.72798 11.8537 9.53054 11.7187 10.1555 11.4489C10.7805 11.1719 11.2422 10.7706 11.5405 10.245C11.8459 9.71236 11.9986 9.05895 11.9986 8.2848C11.9986 7.51065 11.8459 6.85014 11.5405 6.30327C11.2351 5.74929 10.7699 5.33026 10.1449 5.04616C9.51989 4.75497 8.71378 4.60938 7.72656 4.60938H4.1044V23.125H0.151989ZM11.4233 13.2386L16.8246 23.125H12.4141L7.10866 13.2386H11.4233ZM26.5032 23.4446C24.8626 23.4446 23.4457 23.1037 22.2525 22.4219C21.0664 21.733 20.1538 20.7599 19.5146 19.5028C18.8754 18.2386 18.5558 16.7507 18.5558 15.0391C18.5558 13.3558 18.8754 11.8786 19.5146 10.6072C20.1609 9.32883 21.0629 8.33452 22.2205 7.62429C23.3782 6.90696 24.7383 6.5483 26.3008 6.5483C27.3093 6.5483 28.261 6.71165 29.1559 7.03835C30.0579 7.35795 30.8533 7.85511 31.5423 8.52983C32.2383 9.20455 32.7852 10.0639 33.1829 11.108C33.5806 12.1449 33.7795 13.3807 33.7795 14.8153V15.9979H20.3668V13.3984H30.0827C30.0756 12.6598 29.9158 12.0028 29.6033 11.4276C29.2908 10.8452 28.854 10.3871 28.293 10.0533C27.739 9.71946 27.0927 9.55256 26.354 9.55256C25.5657 9.55256 24.8732 9.74432 24.2766 10.1278C23.68 10.5043 23.2148 11.0014 22.881 11.6193C22.5543 12.2301 22.3874 12.9013 22.3803 13.6328V15.902C22.3803 16.8537 22.5543 17.6705 22.9023 18.3523C23.2504 19.027 23.7369 19.5455 24.3619 19.9077C24.9869 20.2628 25.7184 20.4403 26.5565 20.4403C27.1175 20.4403 27.6254 20.3622 28.0799 20.206C28.5344 20.0426 28.9286 19.8047 29.2624 19.4922C29.5962 19.1797 29.8484 18.7926 30.0188 18.331L33.6197 18.7358C33.3924 19.6875 32.9592 20.5185 32.32 21.2287C31.6879 21.9318 30.8782 22.4787 29.891 22.8693C28.9038 23.2528 27.7745 23.4446 26.5032 23.4446ZM44.1586 29.6023C42.7736 29.6023 41.584 29.4141 40.5897 29.0376C39.5953 28.6683 38.7963 28.1712 38.1926 27.5462C37.589 26.9212 37.1699 26.2287 36.9355 25.4688L40.4086 24.6271C40.5648 24.9467 40.7921 25.2628 41.0904 25.5753C41.3887 25.8949 41.79 26.1577 42.2942 26.3636C42.8056 26.5767 43.4483 26.6832 44.2225 26.6832C45.3162 26.6832 46.2218 26.4169 46.9391 25.8842C47.6564 25.3587 48.0151 24.4922 48.0151 23.2848V20.1847H47.8233C47.6245 20.5824 47.3333 20.9908 46.9498 21.4098C46.5733 21.8288 46.0726 22.1804 45.4476 22.4645C44.8297 22.7486 44.052 22.8906 43.1145 22.8906C41.8574 22.8906 40.7175 22.5959 39.6948 22.0064C38.6792 21.4098 37.8695 20.522 37.2658 19.343C36.6692 18.157 36.3709 16.6726 36.3709 14.8899C36.3709 13.093 36.6692 11.5767 37.2658 10.3409C37.8695 9.09801 38.6827 8.15696 39.7054 7.51776C40.7282 6.87145 41.8681 6.5483 43.1252 6.5483C44.084 6.5483 44.8723 6.71165 45.4902 7.03835C46.1152 7.35795 46.6124 7.74503 46.9817 8.19957C47.351 8.64702 47.6316 9.0696 47.8233 9.46733H48.0364V6.76136H51.8397V23.3913C51.8397 24.7905 51.5059 25.9482 50.8382 26.8643C50.1706 27.7805 49.258 28.4659 48.1003 28.9205C46.9426 29.375 45.6287 29.6023 44.1586 29.6023ZM44.1905 19.8651C45.0073 19.8651 45.7033 19.6662 46.2786 19.2685C46.8539 18.8707 47.2907 18.299 47.589 17.5533C47.8873 16.8075 48.0364 15.9126 48.0364 14.8686C48.0364 13.8388 47.8873 12.9368 47.589 12.1626C47.2978 11.3885 46.8645 10.7884 46.2892 10.3622C45.7211 9.92898 45.0215 9.71236 44.1905 9.71236C43.3311 9.71236 42.6138 9.93608 42.0385 10.3835C41.4632 10.831 41.03 11.4453 40.7388 12.2266C40.4476 13.0007 40.302 13.8814 40.302 14.8686C40.302 15.87 40.4476 16.7472 40.7388 17.5C41.0371 18.2457 41.4739 18.8281 42.0492 19.2472C42.6316 19.6591 43.3453 19.8651 44.1905 19.8651ZM63.0364 23.4446C61.3958 23.4446 59.9789 23.1037 58.7857 22.4219C57.5996 21.733 56.687 20.7599 56.0478 19.5028C55.4086 18.2386 55.089 16.7507 55.089 15.0391C55.089 13.3558 55.4086 11.8786 56.0478 10.6072C56.6941 9.32883 57.5961 8.33452 58.7537 7.62429C59.9114 6.90696 61.2715 6.5483 62.834 6.5483C63.8425 6.5483 64.7942 6.71165 65.6891 7.03835C66.5911 7.35795 67.3865 7.85511 68.0755 8.52983C68.7715 9.20455 69.3184 10.0639 69.7161 11.108C70.1138 12.1449 70.3127 13.3807 70.3127 14.8153V15.9979H56.9V13.3984H66.6159C66.6088 12.6598 66.449 12.0028 66.1365 11.4276C65.824 10.8452 65.3873 10.3871 64.8262 10.0533C64.2722 9.71946 63.6259 9.55256 62.8873 9.55256C62.0989 9.55256 61.4064 9.74432 60.8098 10.1278C60.2132 10.5043 59.748 11.0014 59.4142 11.6193C59.0875 12.2301 58.9206 12.9013 58.9135 13.6328V15.902C58.9135 16.8537 59.0875 17.6705 59.4355 18.3523C59.7836 19.027 60.2701 19.5455 60.8951 19.9077C61.5201 20.2628 62.2516 20.4403 63.0897 20.4403C63.6507 20.4403 64.1586 20.3622 64.6131 20.206C65.0676 20.0426 65.4618 19.8047 65.7956 19.4922C66.1294 19.1797 66.3816 18.7926 66.552 18.331L70.1529 18.7358C69.9256 19.6875 69.4924 20.5185 68.8532 21.2287C68.2211 21.9318 67.4114 22.4787 66.4242 22.8693C65.437 23.2528 64.3077 23.4446 63.0364 23.4446ZM77.4318 13.5369V23.125H73.5753V6.76136H77.2614V9.5419H77.4531C77.8295 8.62571 78.4297 7.89773 79.2536 7.35795C80.0845 6.81818 81.1108 6.5483 82.3324 6.5483C83.4616 6.5483 84.4453 6.78977 85.2834 7.27273C86.1286 7.75568 86.782 8.45526 87.2436 9.37145C87.7124 10.2876 87.9432 11.3991 87.9361 12.706V23.125H84.0795V13.3026C84.0795 12.2088 83.7955 11.353 83.2273 10.7351C82.6662 10.1172 81.8885 9.80824 80.8942 9.80824C80.2195 9.80824 79.6193 9.95739 79.0938 10.2557C78.5753 10.5469 78.1669 10.9695 77.8686 11.5234C77.5774 12.0774 77.4318 12.7486 77.4318 13.5369ZM104.619 6.76136C104.499 5.54687 103.962 4.58097 103.011 3.86364C102.059 3.14631 100.862 2.78764 99.4205 2.78764C98.4048 2.78764 97.5099 2.96165 96.7358 3.30966C95.9688 3.65767 95.3651 4.14062 94.9247 4.75852C94.4915 5.36932 94.2749 6.06534 94.2749 6.84659C94.2749 7.42188 94.3991 7.92614 94.6477 8.35938C94.8963 8.79261 95.2301 9.16548 95.6491 9.47798C96.0753 9.78338 96.544 10.0462 97.0554 10.2663C97.5739 10.4865 98.0959 10.6712 98.6214 10.8203L100.923 11.4808C101.619 11.6726 102.315 11.9176 103.011 12.2159C103.707 12.5142 104.342 12.8906 104.918 13.3452C105.5 13.7926 105.965 14.343 106.313 14.9964C106.668 15.6428 106.846 16.4205 106.846 17.3295C106.846 18.4943 106.544 19.5419 105.94 20.4723C105.337 21.4027 104.47 22.1413 103.341 22.6882C102.212 23.228 100.859 23.4979 99.282 23.4979C97.7976 23.4979 96.5085 23.2528 95.4148 22.7628C94.321 22.2656 93.4616 21.5803 92.8366 20.7067C92.2116 19.8331 91.8601 18.821 91.782 17.6705H93.8274C93.8984 18.5298 94.1825 19.2578 94.6797 19.8544C95.1768 20.451 95.8232 20.9055 96.6186 21.218C97.4141 21.5234 98.3018 21.6761 99.282 21.6761C100.369 21.6761 101.335 21.495 102.18 21.1328C103.032 20.7635 103.7 20.2521 104.183 19.5987C104.673 18.9382 104.918 18.1712 104.918 17.2976C104.918 16.5589 104.726 15.9411 104.342 15.4439C103.959 14.9396 103.423 14.517 102.734 14.1761C102.052 13.8352 101.26 13.5334 100.358 13.2706L97.7479 12.5036C96.0362 11.9922 94.7081 11.2855 93.7635 10.3835C92.8189 9.48153 92.3466 8.33097 92.3466 6.93182C92.3466 5.75994 92.6591 4.73011 93.2841 3.84233C93.9162 2.94744 94.7685 2.25142 95.8409 1.75426C96.9205 1.25 98.1314 0.997868 99.4737 0.997868C100.83 0.997868 102.031 1.24645 103.075 1.74361C104.119 2.24077 104.946 2.92614 105.557 3.79971C106.175 4.66619 106.505 5.65341 106.548 6.76136H104.619ZM117.638 23.4659C116.175 23.4659 114.9 23.1001 113.813 22.3686C112.734 21.6371 111.896 20.6357 111.299 19.3643C110.702 18.093 110.404 16.6442 110.404 15.0178C110.404 13.3771 110.706 11.9176 111.31 10.6392C111.92 9.3608 112.766 8.35937 113.845 7.63494C114.925 6.90341 116.178 6.53764 117.606 6.53764C118.7 6.53764 119.69 6.75071 120.578 7.17685C121.466 7.59588 122.197 8.18892 122.773 8.95597C123.355 9.71591 123.721 10.6037 123.87 11.6193H121.952C121.754 10.696 121.274 9.90767 120.514 9.25426C119.761 8.59375 118.803 8.26349 117.638 8.26349C116.594 8.26349 115.67 8.54759 114.868 9.11577C114.065 9.67685 113.437 10.4616 112.982 11.4702C112.535 12.4716 112.311 13.6328 112.311 14.9538C112.311 16.282 112.531 17.4574 112.972 18.4801C113.412 19.4957 114.03 20.2912 114.825 20.8665C115.628 21.4418 116.565 21.7294 117.638 21.7294C118.362 21.7294 119.023 21.5945 119.619 21.3246C120.223 21.0476 120.727 20.657 121.132 20.1527C121.544 19.6484 121.821 19.0483 121.963 18.3523H123.881C123.739 19.3395 123.387 20.2202 122.826 20.9943C122.272 21.7614 121.551 22.3651 120.663 22.8054C119.783 23.2457 118.774 23.4659 117.638 23.4659ZM134.305 23.4659C132.892 23.4659 131.642 23.1072 130.555 22.3899C129.475 21.6726 128.63 20.6818 128.02 19.4176C127.409 18.1463 127.103 16.6797 127.103 15.0178C127.103 13.3416 127.409 11.8679 128.02 10.5966C128.63 9.31818 129.475 8.32386 130.555 7.61364C131.642 6.89631 132.892 6.53764 134.305 6.53764C135.718 6.53764 136.965 6.89631 138.044 7.61364C139.124 8.33097 139.969 9.32528 140.58 10.5966C141.198 11.8679 141.507 13.3416 141.507 15.0178C141.507 16.6797 141.201 18.1463 140.591 19.4176C139.98 20.6818 139.131 21.6726 138.044 22.3899C136.965 23.1072 135.718 23.4659 134.305 23.4659ZM134.305 21.7294C135.441 21.7294 136.404 21.424 137.192 20.8132C137.98 20.2024 138.577 19.3892 138.982 18.3736C139.394 17.358 139.6 16.2393 139.6 15.0178C139.6 13.7962 139.394 12.674 138.982 11.6513C138.577 10.6286 137.98 9.80824 137.192 9.19034C136.404 8.57244 135.441 8.26349 134.305 8.26349C133.176 8.26349 132.213 8.57244 131.418 9.19034C130.63 9.80824 130.029 10.6286 129.618 11.6513C129.213 12.674 129.01 13.7962 129.01 15.0178C129.01 16.2393 129.213 17.358 129.618 18.3736C130.029 19.3892 130.63 20.2024 131.418 20.8132C132.206 21.424 133.169 21.7294 134.305 21.7294ZM145.67 23.125V6.76136H147.513V9.27557H147.651C147.978 8.4517 148.546 7.78764 149.356 7.28338C150.172 6.77202 151.096 6.51633 152.126 6.51633C152.282 6.51633 152.456 6.51989 152.648 6.52699C152.839 6.53409 152.999 6.54119 153.127 6.5483V8.47656C153.042 8.46236 152.893 8.44105 152.68 8.41264C152.466 8.38423 152.236 8.37003 151.987 8.37003C151.135 8.37003 150.375 8.55114 149.707 8.91335C149.047 9.26847 148.525 9.76207 148.141 10.3942C147.758 11.0263 147.566 11.7472 147.566 12.5568V23.125H145.67ZM162.481 23.4659C160.954 23.4659 159.633 23.1108 158.518 22.4006C157.403 21.6832 156.54 20.6925 155.929 19.4283C155.325 18.157 155.023 16.6939 155.023 15.0391C155.023 13.3913 155.325 11.9283 155.929 10.6499C156.54 9.36435 157.381 8.35937 158.454 7.63494C159.533 6.90341 160.78 6.53764 162.193 6.53764C163.081 6.53764 163.937 6.70099 164.76 7.0277C165.584 7.3473 166.323 7.84091 166.976 8.50852C167.637 9.16903 168.159 10.0036 168.542 11.0121C168.926 12.0135 169.118 13.1996 169.118 14.5703V15.5078H156.334V13.8352H167.179C167.179 12.7841 166.966 11.8395 166.54 11.0014C166.121 10.1562 165.535 9.48864 164.782 8.99858C164.036 8.50852 163.173 8.26349 162.193 8.26349C161.156 8.26349 160.243 8.54048 159.455 9.09446C158.667 9.64844 158.049 10.38 157.601 11.2891C157.161 12.1982 156.937 13.1925 156.93 14.272V15.2734C156.93 16.5732 157.154 17.7095 157.601 18.6825C158.056 19.6484 158.699 20.3977 159.53 20.9304C160.361 21.4631 161.344 21.7294 162.481 21.7294C163.255 21.7294 163.933 21.6087 164.515 21.3672C165.105 21.1257 165.599 20.8026 165.996 20.3977C166.401 19.9858 166.706 19.5348 166.912 19.0447L168.713 19.6307C168.464 20.3196 168.056 20.9553 167.488 21.5376C166.927 22.12 166.224 22.5888 165.378 22.9439C164.54 23.2919 163.574 23.4659 162.481 23.4659Z" fill="#FFC555"/>
</svg>
