<svg width="172" height="29" viewBox="0 0 172 29" fill="none" xmlns="http://www.w3.org/2000/svg">
<path d="M0.896307 22.1562V0.338068H9.50426C11.152 0.338068 12.5582 0.632812 13.723 1.2223C14.8949 1.80469 15.7862 2.6321 16.397 3.70455C17.0149 4.76989 17.3239 6.02344 17.3239 7.4652C17.3239 8.91406 17.0114 10.1605 16.3864 11.2045C15.7614 12.2415 14.8558 13.0369 13.6697 13.5909C12.4908 14.1449 11.0632 14.4219 9.38707 14.4219H3.62358V10.7145H8.64134C9.52202 10.7145 10.2536 10.5937 10.8359 10.3523C11.4183 10.1108 11.8516 9.74858 12.1357 9.26562C12.4268 8.78267 12.5724 8.18253 12.5724 7.4652C12.5724 6.74077 12.4268 6.12997 12.1357 5.63281C11.8516 5.13565 11.4148 4.75923 10.8253 4.50355C10.2429 4.24077 9.50781 4.10938 8.62003 4.10938H5.50923V22.1562H0.896307ZM12.679 12.2273L18.1016 22.1562H13.0092L7.70384 12.2273H12.679ZM27.6923 22.4759C26.0091 22.4759 24.5602 22.1349 23.3457 21.4531C22.1383 20.7642 21.2079 19.7912 20.5545 18.5341C19.9011 17.2699 19.5744 15.7749 19.5744 14.049C19.5744 12.3658 19.9011 10.8885 20.5545 9.61719C21.2079 8.34588 22.1277 7.35511 23.3137 6.64489C24.5069 5.93466 25.9061 5.57955 27.5112 5.57955C28.5907 5.57955 29.5957 5.75355 30.5261 6.10156C31.4636 6.44247 32.2804 6.95739 32.9764 7.64631C33.6795 8.33523 34.2264 9.2017 34.617 10.2457C35.0076 11.2827 35.2029 12.4972 35.2029 13.8892V15.1357H21.3855V12.3232H30.9309C30.9309 11.6697 30.7889 11.0909 30.5048 10.5866C30.2207 10.0824 29.8265 9.68821 29.3223 9.40412C28.8251 9.11293 28.2463 8.96733 27.5858 8.96733C26.8968 8.96733 26.286 9.12713 25.7534 9.44673C25.2278 9.75923 24.8159 10.1818 24.5176 10.7145C24.2193 11.2401 24.0666 11.826 24.0595 12.4723V15.1463C24.0595 15.956 24.2086 16.6555 24.5069 17.245C24.8123 17.8345 25.242 18.2891 25.796 18.6087C26.35 18.9283 27.0069 19.0881 27.7669 19.0881C28.2711 19.0881 28.7328 19.017 29.1518 18.875C29.5708 18.733 29.9295 18.5199 30.2278 18.2358C30.5261 17.9517 30.7534 17.6037 30.9096 17.1918L35.1071 17.4688C34.894 18.4773 34.4572 19.358 33.7967 20.1108C33.1433 20.8565 32.2981 21.4389 31.2612 21.858C30.2314 22.2699 29.0417 22.4759 27.6923 22.4759ZM45.5368 28.6335C44.0666 28.6335 42.8059 28.4311 41.7548 28.0263C40.7108 27.6286 39.8798 27.0852 39.2619 26.3963C38.644 25.7074 38.2427 24.9332 38.0581 24.0739L42.2555 23.5092C42.3833 23.8359 42.5858 24.1413 42.8627 24.4254C43.1397 24.7095 43.5055 24.9368 43.9601 25.1072C44.4217 25.2848 44.9828 25.3736 45.6433 25.3736C46.6305 25.3736 47.4437 25.1321 48.0829 24.6491C48.7292 24.1733 49.0524 23.3743 49.0524 22.2521V19.2585H48.8606C48.6618 19.7131 48.3635 20.1428 47.9657 20.5476C47.568 20.9524 47.0566 21.2827 46.4316 21.5384C45.8066 21.794 45.0609 21.9219 44.1944 21.9219C42.9657 21.9219 41.8471 21.6378 40.8386 21.0696C39.8372 20.4943 39.0382 19.6172 38.4416 18.4382C37.8521 17.2521 37.5574 15.7536 37.5574 13.9425C37.5574 12.0888 37.8592 10.5405 38.4629 9.29758C39.0666 8.05469 39.8691 7.12429 40.8706 6.50639C41.8791 5.88849 42.9835 5.57955 44.1838 5.57955C45.1 5.57955 45.867 5.7358 46.4849 6.0483C47.1028 6.35369 47.6 6.73722 47.9764 7.19886C48.3599 7.65341 48.6547 8.10085 48.8606 8.54119H49.0311V5.79261H53.5375V22.3161C53.5375 23.7081 53.1966 24.8729 52.5147 25.8104C51.8329 26.7479 50.8883 27.451 49.6809 27.9197C48.4806 28.3956 47.0993 28.6335 45.5368 28.6335ZM45.6326 18.5128C46.3642 18.5128 46.9821 18.3317 47.4863 17.9695C47.9977 17.6001 48.3883 17.0746 48.6582 16.3928C48.9352 15.7038 49.0737 14.88 49.0737 13.9212C49.0737 12.9624 48.9387 12.1314 48.6689 11.4283C48.399 10.718 48.0083 10.1676 47.497 9.77699C46.9856 9.38636 46.3642 9.19105 45.6326 9.19105C44.8869 9.19105 44.2583 9.39347 43.747 9.79829C43.2356 10.196 42.8485 10.75 42.5858 11.4602C42.323 12.1705 42.1916 12.9908 42.1916 13.9212C42.1916 14.8658 42.323 15.6825 42.5858 16.3714C42.8556 17.0533 43.2427 17.5824 43.747 17.9588C44.2583 18.3281 44.8869 18.5128 45.6326 18.5128ZM64.6064 22.4759C62.9231 22.4759 61.4743 22.1349 60.2598 21.4531C59.0524 20.7642 58.122 19.7912 57.4686 18.5341C56.8152 17.2699 56.4885 15.7749 56.4885 14.049C56.4885 12.3658 56.8152 10.8885 57.4686 9.61719C58.122 8.34588 59.0417 7.35511 60.2278 6.64489C61.421 5.93466 62.8201 5.57955 64.4252 5.57955C65.5048 5.57955 66.5098 5.75355 67.4402 6.10156C68.3777 6.44247 69.1944 6.95739 69.8904 7.64631C70.5936 8.33523 71.1404 9.2017 71.5311 10.2457C71.9217 11.2827 72.117 12.4972 72.117 13.8892V15.1357H58.2995V12.3232H67.845C67.845 11.6697 67.7029 11.0909 67.4189 10.5866C67.1348 10.0824 66.7406 9.68821 66.2363 9.40412C65.7392 9.11293 65.1603 8.96733 64.4998 8.96733C63.8109 8.96733 63.2001 9.12713 62.6674 9.44673C62.1419 9.75923 61.7299 10.1818 61.4316 10.7145C61.1333 11.2401 60.9806 11.826 60.9735 12.4723V15.1463C60.9735 15.956 61.1227 16.6555 61.421 17.245C61.7264 17.8345 62.1561 18.2891 62.71 18.6087C63.264 18.9283 63.921 19.0881 64.6809 19.0881C65.1852 19.0881 65.6468 19.017 66.0659 18.875C66.4849 18.733 66.8436 18.5199 67.1419 18.2358C67.4402 17.9517 67.6674 17.6037 67.8237 17.1918L72.0211 17.4688C71.8081 18.4773 71.3713 19.358 70.7108 20.1108C70.0574 20.8565 69.2122 21.4389 68.1752 21.858C67.1454 22.2699 65.9558 22.4759 64.6064 22.4759ZM79.617 12.696V22.1562H75.0787V5.79261H79.4039V8.67969H79.5957C79.9579 7.72798 80.5652 6.97514 81.4174 6.42116C82.2697 5.86009 83.3031 5.57955 84.5176 5.57955C85.6539 5.57955 86.6447 5.82812 87.4899 6.32528C88.3351 6.82244 88.992 7.53267 89.4608 8.45597C89.9295 9.37216 90.1639 10.4659 90.1639 11.7372V22.1562H85.6255V12.5469C85.6326 11.5455 85.377 10.7642 84.8585 10.2031C84.34 9.63494 83.6262 9.35085 82.7172 9.35085C82.1064 9.35085 81.5666 9.48224 81.0978 9.74503C80.6362 10.0078 80.274 10.3913 80.0112 10.8956C79.7555 11.3928 79.6241 11.9929 79.617 12.696ZM106.674 5.79261C106.553 4.57812 106.017 3.61222 105.065 2.89489C104.114 2.17756 102.917 1.81889 101.475 1.81889C100.46 1.81889 99.5646 1.9929 98.7905 2.34091C98.0234 2.68892 97.4197 3.17187 96.9794 3.78977C96.5462 4.40057 96.3295 5.09659 96.3295 5.87784C96.3295 6.45312 96.4538 6.95739 96.7024 7.39062C96.951 7.82386 97.2848 8.19673 97.7038 8.50923C98.13 8.81463 98.5987 9.07741 99.1101 9.29758C99.6286 9.51776 100.151 9.70241 100.676 9.85156L102.977 10.5121C103.673 10.7038 104.369 10.9489 105.065 11.2472C105.761 11.5455 106.397 11.9219 106.972 12.3764C107.555 12.8239 108.02 13.3743 108.368 14.0277C108.723 14.674 108.901 15.4517 108.901 16.3608C108.901 17.5256 108.599 18.5732 107.995 19.5036C107.391 20.4339 106.525 21.1726 105.396 21.7195C104.266 22.2592 102.913 22.5291 101.337 22.5291C99.8523 22.5291 98.5632 22.2841 97.4695 21.794C96.3757 21.2969 95.5163 20.6115 94.8913 19.7379C94.2663 18.8643 93.9148 17.8523 93.8366 16.7017H95.8821C95.9531 17.5611 96.2372 18.2891 96.7344 18.8857C97.2315 19.4822 97.8778 19.9368 98.6733 20.2493C99.4688 20.5547 100.357 20.7074 101.337 20.7074C102.423 20.7074 103.389 20.5263 104.234 20.1641C105.087 19.7947 105.754 19.2834 106.237 18.63C106.727 17.9695 106.972 17.2024 106.972 16.3288C106.972 15.5902 106.781 14.9723 106.397 14.4751C106.013 13.9709 105.477 13.5483 104.788 13.2074C104.107 12.8665 103.315 12.5646 102.413 12.3018L99.8026 11.5348C98.0909 11.0234 96.7628 10.3168 95.8182 9.41477C94.8736 8.51278 94.4013 7.36222 94.4013 5.96307C94.4013 4.79119 94.7138 3.76136 95.3388 2.87358C95.9709 1.97869 96.8232 1.28267 97.8956 0.78551C98.9751 0.281249 100.186 0.0291182 101.528 0.0291182C102.885 0.0291182 104.085 0.277698 105.129 0.774858C106.173 1.27202 107.001 1.95739 107.612 2.83096C108.229 3.69744 108.56 4.68466 108.602 5.79261H106.674ZM119.692 22.4972C118.229 22.4972 116.955 22.1314 115.868 21.3999C114.788 20.6683 113.95 19.6669 113.354 18.3956C112.757 17.1243 112.459 15.6754 112.459 14.049C112.459 12.4084 112.761 10.9489 113.364 9.67045C113.975 8.39205 114.82 7.39062 115.9 6.66619C116.979 5.93466 118.233 5.56889 119.661 5.56889C120.754 5.56889 121.745 5.78196 122.633 6.2081C123.521 6.62713 124.252 7.22017 124.827 7.98722C125.41 8.74716 125.776 9.63494 125.925 10.6506H124.007C123.808 9.72727 123.329 8.93892 122.569 8.28551C121.816 7.625 120.857 7.29474 119.692 7.29474C118.648 7.29474 117.725 7.57884 116.923 8.14702C116.12 8.7081 115.491 9.4929 115.037 10.5014C114.589 11.5028 114.366 12.6641 114.366 13.9851C114.366 15.3132 114.586 16.4886 115.026 17.5114C115.467 18.527 116.085 19.3224 116.88 19.8977C117.683 20.473 118.62 20.7607 119.692 20.7607C120.417 20.7607 121.077 20.6257 121.674 20.3558C122.278 20.0788 122.782 19.6882 123.187 19.1839C123.599 18.6797 123.876 18.0795 124.018 17.3835H125.935C125.793 18.3707 125.442 19.2514 124.881 20.0256C124.327 20.7926 123.606 21.3963 122.718 21.8366C121.837 22.277 120.829 22.4972 119.692 22.4972ZM136.36 22.4972C134.946 22.4972 133.696 22.1385 132.61 21.4212C131.53 20.7038 130.685 19.7131 130.074 18.4489C129.463 17.1776 129.158 15.7109 129.158 14.049C129.158 12.3729 129.463 10.8991 130.074 9.62784C130.685 8.34943 131.53 7.35511 132.61 6.64489C133.696 5.92756 134.946 5.56889 136.36 5.56889C137.773 5.56889 139.02 5.92756 140.099 6.64489C141.179 7.36222 142.024 8.35653 142.635 9.62784C143.252 10.8991 143.561 12.3729 143.561 14.049C143.561 15.7109 143.256 17.1776 142.645 18.4489C142.034 19.7131 141.186 20.7038 140.099 21.4212C139.02 22.1385 137.773 22.4972 136.36 22.4972ZM136.36 20.7607C137.496 20.7607 138.458 20.4553 139.247 19.8445C140.035 19.2337 140.632 18.4205 141.037 17.4048C141.449 16.3892 141.654 15.2706 141.654 14.049C141.654 12.8274 141.449 11.7053 141.037 10.6825C140.632 9.6598 140.035 8.83949 139.247 8.22159C138.458 7.60369 137.496 7.29474 136.36 7.29474C135.23 7.29474 134.268 7.60369 133.473 8.22159C132.684 8.83949 132.084 9.6598 131.672 10.6825C131.267 11.7053 131.065 12.8274 131.065 14.049C131.065 15.2706 131.267 16.3892 131.672 17.4048C132.084 18.4205 132.684 19.2337 133.473 19.8445C134.261 20.4553 135.223 20.7607 136.36 20.7607ZM147.724 22.1562V5.79261H149.567V8.30682H149.706C150.032 7.48295 150.601 6.81889 151.41 6.31463C152.227 5.80327 153.15 5.54758 154.18 5.54758C154.336 5.54758 154.51 5.55114 154.702 5.55824C154.894 5.56534 155.054 5.57244 155.182 5.57955V7.50781C155.096 7.49361 154.947 7.4723 154.734 7.44389C154.521 7.41548 154.29 7.40128 154.042 7.40128C153.189 7.40128 152.43 7.58239 151.762 7.9446C151.101 8.29972 150.579 8.79332 150.196 9.42543C149.812 10.0575 149.621 10.7784 149.621 11.5881V22.1562H147.724ZM164.535 22.4972C163.008 22.4972 161.687 22.142 160.572 21.4318C159.457 20.7145 158.594 19.7237 157.983 18.4595C157.38 17.1882 157.078 15.7251 157.078 14.0703C157.078 12.4226 157.38 10.9595 157.983 9.68111C158.594 8.3956 159.436 7.39062 160.508 6.66619C161.588 5.93466 162.834 5.56889 164.248 5.56889C165.135 5.56889 165.991 5.73224 166.815 6.05895C167.639 6.37855 168.378 6.87216 169.031 7.53977C169.692 8.20028 170.214 9.0348 170.597 10.0433C170.981 11.0447 171.172 12.2308 171.172 13.6016V14.5391H158.388V12.8665H169.233C169.233 11.8153 169.02 10.8707 168.594 10.0327C168.175 9.1875 167.589 8.51989 166.836 8.02983C166.091 7.53977 165.228 7.29474 164.248 7.29474C163.211 7.29474 162.298 7.57173 161.51 8.12571C160.721 8.67969 160.104 9.41122 159.656 10.3203C159.216 11.2294 158.992 12.2237 158.985 13.3033V14.3047C158.985 15.6044 159.209 16.7408 159.656 17.7138C160.111 18.6797 160.753 19.429 161.584 19.9616C162.415 20.4943 163.399 20.7607 164.535 20.7607C165.309 20.7607 165.988 20.6399 166.57 20.3984C167.16 20.157 167.653 19.8338 168.051 19.429C168.456 19.017 168.761 18.5661 168.967 18.076L170.768 18.6619C170.519 19.3509 170.111 19.9865 169.542 20.5689C168.981 21.1513 168.278 21.62 167.433 21.9751C166.595 22.3232 165.629 22.4972 164.535 22.4972Z" fill="black"/>
</svg>
