<svg width="238" height="456" viewBox="0 0 238 456" fill="none" xmlns="http://www.w3.org/2000/svg">
<mask id="mask0_1110_2714" style="mask-type:alpha" maskUnits="userSpaceOnUse" x="0" y="0" width="238" height="467">
<path fill-rule="evenodd" clip-rule="evenodd" d="M236.888 22.3859C234.432 7.77431 220.597 -2.0802 205.985 0.375182C70.3243 23.1722 0.381298 129.45 0.00308757 235.068C-0.376023 340.938 69.1751 446.307 206.526 466.517C221.184 468.674 234.816 458.539 236.973 443.88C239.13 429.222 228.995 415.59 214.336 413.433C105.545 397.426 53.3662 316.679 53.6577 235.26C53.9502 153.588 107.078 71.4032 214.877 53.2883C229.488 50.8329 239.343 36.9974 236.888 22.3859Z" fill="white"/>
</mask>
<g mask="url(#mask0_1110_2714)">
<path d="M36.7224 33.5372L160.8 164.321L335.178 10.7338L199.699 -118.038L36.7224 33.5372Z" fill="white"/>
</g>
</svg>
