<svg width="24" height="24" viewBox="0 0 24 24" fill="none" xmlns="http://www.w3.org/2000/svg">
<path d="M8.80314 21.9232L5.79477 18.3754C5.69536 19.155 5.80997 20.9882 8.80314 21.9232ZM11.4766 21.1009V10.0167C12.4951 10.7968 16.1707 14.2798 11.4766 21.1009ZM10.999 10.0167V21.1009C6.30522 14.2798 9.98079 10.7968 10.999 10.0167ZM11.4766 7.64805V0C11.7859 0.170526 12.3748 0.547653 13.1235 1.27537V5.69953C13.1238 5.79584 13.1049 5.89125 13.068 5.98024C13.0311 6.06922 12.9769 6.15003 12.9086 6.21796L11.4766 7.64805ZM3.09885 13.6743C3.46602 12.3217 3.85558 11.0988 4.25773 9.99251V15.4538L2.9708 14.1683C3.01089 14.0061 3.05319 13.8419 3.09885 13.6743ZM4.73539 14.219V8.74546C5.55745 6.70867 6.41417 5.12385 7.22552 3.89588V11.5386C7.22517 11.6333 7.20578 11.727 7.16845 11.814C7.13112 11.9011 7.0766 11.9798 7.0082 12.0454L4.73539 14.219ZM9.16824 21.6154L6.104 18.0028C6.79267 18.0078 8.78166 18.3131 9.16824 21.6154ZM9.37958 2.60232V1.24914C10.1151 0.538412 10.693 0.168439 10.999 0V4.45098L9.54315 2.99674C9.49108 2.9451 9.44981 2.88364 9.42173 2.81594C9.39365 2.74823 9.37932 2.67561 9.37958 2.60232ZM15.9295 11.8143V9.18071L17.3325 7.77953C17.5023 8.1659 17.6714 8.57075 17.84 8.99409V14.0228L16.1415 12.3262C16.074 12.2594 16.0205 12.1798 15.9841 12.0921C15.9477 12.0045 15.9292 11.9104 15.9295 11.8155V11.8143ZM16.3322 18.0657L13.2366 21.6352C13.6811 18.4029 15.5943 18.0713 16.3322 18.0669V18.0657ZM13.6274 21.9129L16.6833 18.3906C16.7767 19.133 16.688 21.0246 13.6274 21.9141V21.9129ZM2.84275 14.7142L4.26314 16.1324C4.28919 16.4471 4.41314 16.7457 4.61743 16.9868L5.40193 17.9109C5.33085 18.1566 5.09568 19.1727 5.68312 20.2509C6.25358 21.298 7.39777 22.0537 9.08375 22.4976L9.32257 22.5602L9.33691 22.5483L10.207 23.5743C10.2547 23.6989 10.3246 23.8138 10.4133 23.9134C10.2814 23.9244 10.1447 23.9354 10.0097 23.9462C9.86259 23.9623 9.61272 23.9847 9.29152 23.9936C9.21839 23.9968 9.15957 23.998 9.12107 23.9968C6.69238 24.0255 0.981281 23.2143 2.84275 14.7154V14.7142ZM12.3151 23.4262L13.0793 22.545L13.3041 22.4913C15.0002 22.0877 16.162 21.3584 16.757 20.3254C17.4212 19.1724 17.1173 18.0687 17.0806 17.9468L17.077 17.9351L17.905 16.9811C18.1711 16.6743 18.3175 16.2821 18.3176 15.8763V10.2689C18.6845 11.3019 19.0403 12.4335 19.3773 13.6743C21.9708 23.2256 15.7818 24.0401 13.2961 23.9986L13.2713 23.9968C13.2002 23.9968 13.1322 23.9936 13.0677 23.9908C12.8172 23.9829 12.5673 23.9621 12.319 23.9286V23.9241L12.071 23.9054C12.1905 23.7685 12.2744 23.6043 12.3151 23.4274V23.4262ZM10.1939 22.8238L9.70107 22.2423L9.68436 22.002C9.56228 20.2694 9.0342 19.0075 8.11449 18.2517C7.54267 17.783 6.82617 17.526 6.0864 17.5246C5.99433 17.524 5.90234 17.529 5.81089 17.5395L5.72133 17.5511L4.98109 16.6786C4.82217 16.491 4.73495 16.2532 4.7348 16.0074V14.8781L7.33837 12.3924C7.45343 12.2821 7.54504 12.1498 7.60772 12.0034C7.6704 11.8569 7.70286 11.6993 7.70314 11.5401V3.20543C8.07275 2.69222 8.47309 2.20181 8.90197 1.73687V2.60143C8.90162 2.73738 8.92824 2.87206 8.98029 2.99768C9.03234 3.1233 9.10882 3.23737 9.20526 3.33331L10.999 5.12474V9.43322L10.9799 9.44545C10.8805 9.50775 10.3566 9.85299 9.78587 10.513C9.45477 10.8953 9.16891 11.3145 8.93392 11.7622C8.64422 12.315 8.43637 12.9069 8.3169 13.5193C8.09929 14.6292 8.16227 15.8267 8.50347 17.0787C8.90288 18.543 9.69122 20.1022 10.8465 21.7132L10.9892 21.9123H10.999V22.1067C10.8147 22.1481 10.6439 22.2356 10.503 22.3613C10.3621 22.487 10.2557 22.6467 10.1939 22.8249V22.8238ZM16.7227 17.6152L16.6928 17.6108C16.5786 17.595 16.4633 17.5875 16.348 17.5884C15.6049 17.5894 14.8852 17.8474 14.311 18.3185C13.411 19.059 12.8743 20.2912 12.7152 21.981L12.6921 22.2245L12.7107 22.2406L12.2581 22.7626C12.1899 22.5987 12.0833 22.4535 11.9472 22.3394C11.8111 22.2252 11.6495 22.1455 11.476 22.1067V21.9123H11.4862L11.6289 21.7132C12.7841 20.1034 13.5725 18.543 13.9719 17.0787C14.3131 15.8264 14.3761 14.6292 14.1584 13.5193C14.039 12.9069 13.8311 12.315 13.5414 11.7622C13.3064 11.3145 13.0206 10.8953 12.6895 10.513C12.1187 9.85299 11.5948 9.50775 11.4954 9.44545L11.476 9.43322V8.32152L13.2456 6.55425C13.3585 6.4422 13.448 6.30887 13.509 6.16198C13.5699 6.01511 13.601 5.85761 13.6005 5.69864V1.76608C14.1653 2.37813 14.7946 3.17531 15.4513 4.20652V11.8155C15.4509 11.9731 15.4818 12.1292 15.5421 12.2748C15.6025 12.4203 15.6911 12.5525 15.8029 12.6637L17.84 14.6972V15.8769C17.8399 16.168 17.7349 16.4493 17.5442 16.6692L16.7227 17.6152ZM15.9295 4.99267C16.3253 5.67538 16.7268 6.44543 17.1236 7.31267L15.9295 8.50516V4.99267ZM10.4369 23.1084C10.4384 23.0923 10.4402 23.0765 10.4426 23.0607C10.4603 22.9432 10.5041 22.8312 10.571 22.7329C10.5998 22.69 10.6327 22.65 10.6692 22.6136C10.752 22.5308 10.8519 22.467 10.962 22.4266C10.9993 22.413 11.0376 22.402 11.0766 22.3941C11.0897 22.3915 11.1032 22.3891 11.1163 22.3869C11.1433 22.3828 11.1705 22.38 11.1978 22.3789C11.2115 22.3789 11.2253 22.3789 11.239 22.3789C11.3336 22.3789 11.4275 22.3954 11.5163 22.4279C11.5409 22.4365 11.565 22.4465 11.5886 22.4576C11.6121 22.469 11.6348 22.4815 11.6572 22.4949C11.6796 22.5084 11.7008 22.5229 11.7214 22.5381C11.7422 22.554 11.7621 22.5709 11.7811 22.5889C11.7999 22.6056 11.8177 22.6234 11.8345 22.6421C11.8432 22.6517 11.8515 22.6613 11.8599 22.672C11.8683 22.6827 11.8826 22.7019 11.893 22.7155C11.9035 22.7292 11.9107 22.7406 11.919 22.7537C11.9274 22.7668 11.9339 22.7778 11.9411 22.7904C11.9551 22.8151 11.9678 22.8407 11.979 22.8669C11.9846 22.8801 11.99 22.8936 11.9951 22.9072C12.0094 22.9467 12.0207 22.9871 12.0289 23.0282C12.031 23.0393 12.033 23.0503 12.0345 23.0613C12.0387 23.0882 12.0415 23.1153 12.0429 23.1425C12.0429 23.1561 12.0429 23.1699 12.0429 23.1839C12.0429 23.198 12.0429 23.2116 12.0429 23.2253C12.0369 23.349 12.002 23.4696 11.9411 23.5774C11.9339 23.5899 11.9268 23.6021 11.919 23.614C11.9113 23.626 11.9023 23.6398 11.893 23.6522C11.8838 23.6648 11.8716 23.682 11.8599 23.6958C11.8483 23.7094 11.8432 23.7154 11.8345 23.7255C11.8177 23.7442 11.7999 23.7621 11.7811 23.7789C11.7621 23.7968 11.7422 23.8138 11.7214 23.8296C11.7008 23.8448 11.6793 23.8594 11.6572 23.8729L11.6542 23.8746C11.6331 23.8874 11.611 23.8991 11.5886 23.91C11.565 23.9213 11.5409 23.9313 11.5163 23.9399C11.4275 23.9724 11.3336 23.9889 11.239 23.9888C11.2253 23.9888 11.2115 23.9888 11.1978 23.9888C11.1705 23.9876 11.1433 23.985 11.1163 23.9807C11.1032 23.9787 11.0897 23.9763 11.0766 23.9736C11.0376 23.9657 10.9993 23.9548 10.962 23.9411C10.9395 23.9327 10.9174 23.9235 10.8957 23.9134C10.8742 23.9032 10.8533 23.8922 10.8327 23.88C10.8178 23.8713 10.8029 23.862 10.7886 23.8525C10.7231 23.8085 10.6646 23.7551 10.6148 23.6939C10.5993 23.6749 10.585 23.6556 10.571 23.6343C10.4891 23.513 10.4419 23.3717 10.4342 23.2256C10.4342 23.2119 10.4342 23.1982 10.4342 23.1842C10.4342 23.1701 10.4342 23.1564 10.4342 23.1428C10.4342 23.129 10.4345 23.1207 10.4369 23.1097V23.1084Z" fill="url(#paint0_linear_1350_1196)"/>
<defs>
<linearGradient id="paint0_linear_1350_1196" x1="11.2381" y1="0" x2="11.2381" y2="24" gradientUnits="userSpaceOnUse">
<stop offset="0.437063" stop-color="#F3B34E"/>
<stop offset="1" stop-color="#12BAD6"/>
</linearGradient>
</defs>
</svg>
