<svg width="24" height="24" viewBox="0 0 24 24" fill="none" xmlns="http://www.w3.org/2000/svg">
<path d="M23.32 6.43957C23.3912 6.38043 23.4446 6.3027 23.4742 6.21503C23.5038 6.12737 23.5085 6.03321 23.4877 5.94303C23.467 5.85286 23.4217 5.7702 23.3567 5.70427C23.2918 5.63833 23.2099 5.5917 23.12 5.56957L22.33 5.36957C22.2582 5.35159 22.1913 5.31787 22.1341 5.27087C22.0768 5.22386 22.0308 5.16473 21.9992 5.09775C21.9676 5.03077 21.9513 4.95761 21.9515 4.88357C21.9516 4.80952 21.9682 4.73643 22 4.66957L22.44 3.77957C22.4816 3.69333 22.4975 3.59697 22.486 3.50193C22.4744 3.4069 22.4357 3.3172 22.3746 3.24348C22.3136 3.16976 22.2326 3.11513 22.1414 3.08607C22.0502 3.05701 21.9525 3.05476 21.86 3.07957L19.86 3.63957C19.7855 3.6613 19.707 3.66539 19.6306 3.65151C19.5542 3.63762 19.4821 3.60614 19.42 3.55957C18.5546 2.91046 17.5019 2.55957 16.42 2.55957C15.094 2.55957 13.8222 3.08635 12.8845 4.02404C11.9468 4.96172 11.42 6.23349 11.42 7.55957V7.91957C11.4205 7.98099 11.3983 8.04042 11.3577 8.08653C11.3172 8.13264 11.261 8.1622 11.2 8.16957C8.39004 8.49957 5.70004 7.06957 2.80004 3.72957C2.73704 3.66009 2.65611 3.60933 2.56613 3.58287C2.47615 3.5564 2.38062 3.55526 2.29004 3.57957C2.20844 3.61708 2.13844 3.67588 2.08741 3.74978C2.03638 3.82369 2.0062 3.90997 2.00004 3.99957C1.5995 5.64491 1.76144 7.37699 2.46004 8.91957C2.48071 8.96049 2.48973 9.0063 2.48612 9.05199C2.48251 9.09769 2.46641 9.14151 2.43957 9.17868C2.41273 9.21584 2.37619 9.2449 2.33395 9.2627C2.2917 9.28049 2.24538 9.28633 2.20004 9.27957L1.08004 9.05957C1.0005 9.04678 0.919052 9.0534 0.842623 9.07887C0.766194 9.10433 0.69705 9.14789 0.641076 9.20583C0.585102 9.26376 0.543957 9.33437 0.521142 9.41163C0.498327 9.48889 0.494519 9.57052 0.510041 9.64957C0.59638 10.417 0.854215 11.1552 1.26446 11.8095C1.67471 12.4639 2.22686 13.0175 2.88004 13.4296C2.92231 13.45 2.95796 13.482 2.9829 13.5218C3.00784 13.5616 3.02107 13.6076 3.02107 13.6546C3.02107 13.7015 3.00784 13.7475 2.9829 13.7873C2.95796 13.8271 2.92231 13.8591 2.88004 13.8796L2.35004 14.0896C2.28568 14.1154 2.22738 14.1543 2.17886 14.2038C2.13035 14.2534 2.09266 14.3125 2.06821 14.3774C2.04376 14.4423 2.03307 14.5115 2.03683 14.5808C2.04059 14.65 2.05871 14.7177 2.09004 14.7796C2.38313 15.4209 2.8274 15.9816 3.38474 16.4135C3.94208 16.8455 4.59587 17.1358 5.29004 17.2596C5.3383 17.2771 5.38 17.309 5.40947 17.3511C5.43894 17.3931 5.45475 17.4432 5.45475 17.4946C5.45475 17.5459 5.43894 17.596 5.40947 17.6381C5.38 17.6801 5.3383 17.7121 5.29004 17.7296C3.9304 18.2919 2.47131 18.5742 1.00004 18.5596C0.867433 18.5331 0.72972 18.5603 0.617198 18.6353C0.504676 18.7103 0.426562 18.827 0.400041 18.9596C0.373519 19.0922 0.400762 19.2299 0.475777 19.3424C0.550791 19.4549 0.667433 19.5331 0.800041 19.5596C3.34759 20.7678 6.12122 21.4254 8.94004 21.4896C11.4195 21.5274 13.8548 20.8316 15.94 19.4896C17.6553 18.3446 19.0606 16.7931 20.0307 14.9732C21.0008 13.1534 21.5056 11.1218 21.5 9.05957V8.18957C21.5007 8.11696 21.5171 8.04535 21.5482 7.97973C21.5792 7.91411 21.6243 7.85604 21.68 7.80957L23.32 6.43957Z" fill="#00ACEE"/>
</svg>
