<svg width="24" height="20" viewBox="0 0 24 20" fill="none" xmlns="http://www.w3.org/2000/svg">
<path d="M23.32 4.43957C23.3912 4.38043 23.4446 4.3027 23.4742 4.21503C23.5038 4.12737 23.5085 4.03321 23.4877 3.94303C23.467 3.85286 23.4217 3.7702 23.3567 3.70427C23.2918 3.63833 23.2099 3.5917 23.12 3.56957L22.33 3.36957C22.2582 3.35159 22.1913 3.31787 22.1341 3.27087C22.0768 3.22386 22.0308 3.16473 21.9992 3.09775C21.9676 3.03077 21.9513 2.95761 21.9515 2.88357C21.9516 2.80952 21.9682 2.73643 22 2.66957L22.44 1.77957C22.4816 1.69333 22.4975 1.59697 22.486 1.50193C22.4744 1.4069 22.4357 1.3172 22.3746 1.24348C22.3136 1.16976 22.2326 1.11513 22.1414 1.08607C22.0502 1.05701 21.9525 1.05476 21.86 1.07957L19.86 1.63957C19.7855 1.6613 19.707 1.66539 19.6306 1.65151C19.5542 1.63762 19.4821 1.60614 19.42 1.55957C18.5546 0.91046 17.5019 0.55957 16.42 0.55957C15.094 0.55957 13.8222 1.08635 12.8845 2.02404C11.9468 2.96172 11.42 4.23349 11.42 5.55957V5.91957C11.4205 5.98099 11.3983 6.04042 11.3577 6.08653C11.3172 6.13264 11.261 6.1622 11.2 6.16957C8.39004 6.49957 5.70004 5.06957 2.80004 1.72957C2.73704 1.66009 2.65611 1.60933 2.56613 1.58287C2.47615 1.5564 2.38062 1.55526 2.29004 1.57957C2.20844 1.61708 2.13844 1.67588 2.08741 1.74978C2.03638 1.82369 2.0062 1.90997 2.00004 1.99957C1.5995 3.64491 1.76144 5.37699 2.46004 6.91957C2.48071 6.96049 2.48973 7.0063 2.48612 7.05199C2.48251 7.09769 2.46641 7.14151 2.43957 7.17868C2.41273 7.21584 2.37619 7.2449 2.33395 7.2627C2.2917 7.28049 2.24538 7.28633 2.20004 7.27957L1.08004 7.05957C1.0005 7.04678 0.919052 7.0534 0.842623 7.07887C0.766194 7.10433 0.69705 7.14789 0.641076 7.20583C0.585102 7.26376 0.543957 7.33437 0.521142 7.41163C0.498327 7.48889 0.494519 7.57052 0.510041 7.64957C0.59638 8.41702 0.854215 9.15522 1.26446 9.80954C1.67471 10.4639 2.22686 11.0175 2.88004 11.4296C2.92231 11.45 2.95796 11.482 2.9829 11.5218C3.00784 11.5616 3.02107 11.6076 3.02107 11.6546C3.02107 11.7015 3.00784 11.7475 2.9829 11.7873C2.95796 11.8271 2.92231 11.8591 2.88004 11.8796L2.35004 12.0896C2.28568 12.1154 2.22738 12.1543 2.17886 12.2038C2.13035 12.2534 2.09266 12.3125 2.06821 12.3774C2.04376 12.4423 2.03307 12.5115 2.03683 12.5808C2.04059 12.65 2.05871 12.7177 2.09004 12.7796C2.38313 13.4209 2.8274 13.9816 3.38474 14.4135C3.94208 14.8455 4.59587 15.1358 5.29004 15.2596C5.3383 15.2771 5.38 15.309 5.40947 15.3511C5.43894 15.3931 5.45475 15.4432 5.45475 15.4946C5.45475 15.5459 5.43894 15.596 5.40947 15.6381C5.38 15.6801 5.3383 15.7121 5.29004 15.7296C3.9304 16.2919 2.47131 16.5742 1.00004 16.5596C0.867433 16.5331 0.72972 16.5603 0.617198 16.6353C0.504676 16.7103 0.426562 16.827 0.400041 16.9596C0.373519 17.0922 0.400762 17.2299 0.475777 17.3424C0.550791 17.4549 0.667433 17.5331 0.800041 17.5596C3.34759 18.7678 6.12122 19.4254 8.94004 19.4896C11.4195 19.5274 13.8548 18.8316 15.94 17.4896C17.6553 16.3446 19.0606 14.7931 20.0307 12.9732C21.0008 11.1534 21.5056 9.12182 21.5 7.05957V6.18957C21.5007 6.11696 21.5171 6.04535 21.5482 5.97973C21.5792 5.91411 21.6243 5.85604 21.68 5.80957L23.32 4.43957Z" fill="#00ACEE"/>
</svg>
