<svg width="32" height="32" viewBox="0 0 32 32" fill="none" xmlns="http://www.w3.org/2000/svg">
<path d="M29.9374 27.9861L16.7768 3.54044C16.734 3.46091 16.6704 3.39445 16.5929 3.34813C16.5154 3.3018 16.4268 3.27734 16.3365 3.27734C16.2461 3.27734 16.1575 3.3018 16.08 3.34813C16.0025 3.39445 15.9389 3.46091 15.8961 3.54044L2.73301 27.9861C2.69202 28.0623 2.67151 28.1478 2.67347 28.2343C2.67543 28.3208 2.69981 28.4053 2.74421 28.4795C2.78861 28.5538 2.85152 28.6153 2.92679 28.6579C3.00206 28.7006 3.08712 28.723 3.17364 28.7229H29.4999C29.5861 28.7224 29.6708 28.6997 29.7456 28.6568C29.8205 28.6139 29.883 28.5524 29.927 28.4782C29.971 28.404 29.9951 28.3197 29.997 28.2335C29.9988 28.1473 29.9783 28.062 29.9374 27.9861ZM17.5861 25.7179H15.0861V23.2179H17.5861V25.7179ZM17.3361 21.7229H15.3361L14.9611 11.7229H17.7111L17.3361 21.7229Z" fill="white"/>
</svg>
