<svg width="18" height="19" viewBox="0 0 18 19" fill="none" xmlns="http://www.w3.org/2000/svg">
<path fill-rule="evenodd" clip-rule="evenodd" d="M18 9.11719C18 14.0877 13.9706 18.1172 9 18.1172C4.02944 18.1172 0 14.0877 0 9.11719C0 4.14662 4.02944 0.117188 9 0.117188C13.9706 0.117188 18 4.14662 18 9.11719ZM16.5 9.11719C16.5 13.2872 13.17 16.6172 9 16.6172C4.82 16.6172 1.5 13.2872 1.5 9.11719C1.5 4.93719 4.82 1.61719 9 1.61719C13.17 1.61719 16.5 4.93719 16.5 9.11719Z" fill="#354728"/>
<line x1="9.00447" y1="13.4176" x2="9.00447" y2="8.08973" stroke="#354728" stroke-width="1.21762" stroke-linecap="round"/>
<circle cx="8.99978" cy="5.63991" r="1.02273" fill="#354728"/>
</svg>
