<svg width="24" height="24" viewBox="0 0 24 24" fill="none" xmlns="http://www.w3.org/2000/svg">
<g clip-path="url(#clip0_668_1248)">
<path d="M12 24C18.6274 24 24 18.6274 24 12C24 5.37258 18.6274 0 12 0C5.37258 0 0 5.37258 0 12C0 18.6274 5.37258 24 12 24Z" fill="#FF0420"/>
<path d="M8.50258 15.1898C7.78805 15.1898 7.20264 15.0217 6.74631 14.6854C6.29597 14.3432 6.0708 13.8569 6.0708 13.2264C6.0708 13.0943 6.08582 12.9321 6.11582 12.74C6.19392 12.3077 6.30499 11.7883 6.44909 11.1819C6.85738 9.53068 7.91117 8.70508 9.61042 8.70508C10.0728 8.70508 10.487 8.78313 10.8533 8.93922C11.2196 9.08932 11.5078 9.31751 11.718 9.62375C11.9281 9.92394 12.0332 10.2842 12.0332 10.7045C12.0332 10.8306 12.0182 10.9897 11.9881 11.1819C11.8981 11.7163 11.79 12.2357 11.6639 12.74C11.4538 13.5626 11.0905 14.1781 10.5741 14.5864C10.0577 14.9887 9.36725 15.1898 8.50258 15.1898ZM8.62867 13.8929C8.96496 13.8929 9.25013 13.7938 9.48432 13.5957C9.72451 13.3975 9.89563 13.0943 9.99768 12.686C10.1358 12.1216 10.2409 11.6292 10.3129 11.2089C10.3369 11.0828 10.3489 10.9537 10.3489 10.8216C10.3489 10.2752 10.0637 10.002 9.49335 10.002C9.15706 10.002 8.86886 10.1011 8.62867 10.2992C8.39453 10.4974 8.22639 10.8006 8.12434 11.2089C8.01624 11.6112 7.90814 12.1036 7.8001 12.686C7.77605 12.8061 7.76405 12.9321 7.76405 13.0642C7.76405 13.6167 8.05229 13.8929 8.62867 13.8929Z" fill="white"/>
<path d="M12.4465 15.0996C12.3805 15.0996 12.3294 15.0786 12.2934 15.0365C12.2634 14.9885 12.2544 14.9345 12.2664 14.8744L13.5093 9.02009C13.5213 8.95404 13.5543 8.89999 13.6084 8.85795C13.6624 8.81595 13.7194 8.79492 13.7795 8.79492H16.1753C16.8417 8.79492 17.3761 8.93302 17.7784 9.20921C18.1867 9.48545 18.3909 9.88471 18.3909 10.4071C18.3909 10.5572 18.3729 10.7133 18.3368 10.8754C18.1867 11.566 17.8835 12.0763 17.4272 12.4066C16.9769 12.7368 16.3584 12.9019 15.5718 12.9019H14.3559L13.9416 14.8744C13.9296 14.9405 13.8966 14.9945 13.8426 15.0365C13.7885 15.0786 13.7314 15.0996 13.6714 15.0996H12.4465ZM15.6349 11.659C15.887 11.659 16.1062 11.59 16.2923 11.4519C16.4845 11.3138 16.6106 11.1156 16.6706 10.8574C16.6886 10.7553 16.6976 10.6653 16.6976 10.5872C16.6976 10.4131 16.6466 10.281 16.5445 10.191C16.4424 10.0949 16.2683 10.0469 16.0221 10.0469H14.9413L14.5991 11.659H15.6349Z" fill="white"/>
</g>
<defs>
<clipPath id="clip0_668_1248">
<rect width="24" height="24" fill="white"/>
</clipPath>
</defs>
</svg>
